<svg width="32" height="24" viewBox="0 0 32 24" fill="none" xmlns="http://www.w3.org/2000/svg">
<path d="M9.94665 20.6818C9.00406 20.3441 8.11371 19.9675 7.25151 19.4869C7.31181 19.4331 7.34798 19.3997 7.38617 19.3701C7.4545 19.32 7.52484 19.2736 7.59519 19.2253C7.95092 18.9786 7.82832 18.9804 8.26244 19.1585C10.1697 19.9378 12.1614 20.4221 14.2376 20.5946C17.5959 20.8748 20.8136 20.372 23.8846 19.088C24.0313 19.0268 24.1439 19.0194 24.2665 19.1233C24.369 19.2105 24.4875 19.2829 24.6021 19.3589C24.6443 19.3868 24.6925 19.409 24.7709 19.4517C24.6483 19.5259 24.586 19.5686 24.5197 19.6057C23.8102 19.9805 23.0726 20.3033 22.3129 20.5798C22.2346 20.6094 22.1582 20.6447 22.0637 20.6855C22.0979 20.7616 22.12 20.8247 22.1522 20.8822C22.5883 21.6485 23.0827 22.3832 23.6354 23.0827C23.764 23.2459 23.77 23.2478 23.9871 23.1847C26.7566 22.3832 29.3171 21.1976 31.6706 19.6298C31.7992 19.5445 31.8695 19.4461 31.8816 19.2958C31.9559 18.4442 32.0082 17.587 32.0002 16.728C31.966 13.2102 31.144 9.85754 29.5281 6.67001C28.885 5.40279 28.1353 4.19308 27.3053 3.02234C27.1787 2.84422 27.0239 2.72362 26.8129 2.63828C24.8774 1.85902 22.8757 1.28571 20.7975 0.940608C20.7654 0.935041 20.7312 0.929475 20.6991 0.923909C20.5704 0.897934 20.48 0.938752 20.4197 1.04822C20.3152 1.24118 20.2006 1.43043 20.0981 1.62524C19.9735 1.85716 19.859 2.09465 19.7384 2.32843C19.668 2.46387 19.65 2.475 19.4892 2.45274C18.4943 2.32101 17.4934 2.24308 16.4906 2.23195C15.8213 2.22453 15.152 2.23752 14.4848 2.27462C13.8235 2.31173 13.1663 2.39337 12.5071 2.45459C12.3463 2.46944 12.3343 2.46016 12.2519 2.30616C12.0368 1.90169 11.8238 1.49536 11.6047 1.09275C11.4962 0.892368 11.4841 0.892368 11.245 0.931331C9.16685 1.27458 7.16308 1.84232 5.22765 2.61972C4.99853 2.71249 4.8277 2.84051 4.68701 3.03533C3.33843 4.90555 2.23104 6.88709 1.43114 9.01335C0.796041 10.6999 0.375992 12.4328 0.158934 14.2065C0.00819969 15.4441 -0.0259666 16.6835 0.0162392 17.9247C0.0323162 18.3811 0.0865822 18.8357 0.110701 19.2921C0.11874 19.461 0.20516 19.5593 0.343836 19.6521C1.49947 20.4183 2.70937 21.0993 3.97956 21.6874C5.25578 22.2793 6.57622 22.7728 7.93886 23.168C7.98308 23.181 8.0293 23.1903 8.07352 23.207C8.18406 23.2459 8.26445 23.22 8.33077 23.129C8.48352 22.9194 8.65636 22.7209 8.79906 22.5038C9.14876 21.9769 9.48641 21.4444 9.82807 20.9137C9.86827 20.8525 9.8964 20.7839 9.94665 20.6818ZM13.5703 13.136C13.5341 14.0173 13.2729 14.6834 12.7403 15.253C11.7334 16.3291 10.0532 16.4404 8.89955 15.509C7.56504 14.4329 7.42435 12.3419 8.6021 11.1211C9.5668 10.121 11.0802 9.93176 12.2278 10.6869C13.1784 11.3159 13.5502 12.2176 13.5703 13.136ZM24.2021 13.2863C24.1841 14.0859 23.8545 14.8689 23.1169 15.4868C22.0979 16.3421 20.6066 16.3588 19.5615 15.5313C19.1676 15.2196 18.8722 14.8392 18.6913 14.3921C18.2431 13.2844 18.3275 12.2231 19.1113 11.2658C20.283 9.83528 22.4838 9.8928 23.5932 11.3641C24.0032 11.9114 24.1921 12.52 24.2021 13.2863Z" fill="#7C7C7C"/>
</svg>
