<svg width="144" height="49" viewBox="0 0 144 49" fill="none" xmlns="http://www.w3.org/2000/svg">
<path d="M104.094 47.6866V35.0755H98.1469V32.8438H112.645V35.0755H106.698V47.6866H104.094Z" fill="#7C7C7C"/>
<path d="M116.235 47.6866V32.8438H118.875V45.4549H128.236L127.848 47.6866H116.235Z" fill="#7C7C7C"/>
<path d="M131.542 47.6866V32.8438H143.543V35.0755H134.147V38.9368H143.085V41.1685H134.147V45.4549H144L143.613 47.6866H131.542Z" fill="#7C7C7C"/>
<path d="M60.2828 42.6915C60.0013 44.4273 59.2271 45.738 57.925 46.6945C56.6229 47.6155 54.9338 48.076 52.7872 48.076C51.1684 48.076 49.7608 47.7572 48.5643 47.155C47.3678 46.5528 46.4176 45.6317 45.749 44.4627C45.0804 43.2937 44.7285 41.8767 44.7285 40.2826C44.7285 38.7594 45.0452 37.4133 45.7138 36.2442C46.3473 35.0752 47.2974 34.1542 48.4939 33.4811C49.6904 32.8081 51.1332 32.4893 52.752 32.4893C56.6933 32.4893 59.1215 34.1542 60.0364 37.4487L57.3971 37.8383C57.01 36.7402 56.4822 35.9254 55.7432 35.4295C55.0042 34.9335 54.0188 34.6856 52.752 34.6856C51.098 34.6856 49.8311 35.1815 48.881 36.1734C47.9308 37.1653 47.4734 38.5468 47.4734 40.2826C47.4734 42.0184 47.966 43.4 48.9162 44.3919C49.8663 45.3838 51.2036 45.8797 52.8575 45.8797C54.1948 45.8797 55.2505 45.6317 56.0247 45.1004C56.7989 44.6044 57.2916 43.7897 57.5731 42.6915H60.2828Z" fill="#7C7C7C"/>
<path d="M76.3976 47.6866L74.7084 43.967H66.9313L65.2069 47.6866H62.462L69.4298 32.8438H72.2802L79.248 47.6866H76.3976ZM70.8022 35.3589L67.8462 41.8061H73.7583L70.8022 35.3589Z" fill="#7C7C7C"/>
<path d="M92.5174 36.9542C92.3062 36.3874 92.0247 35.8914 91.6376 35.5726C91.2857 35.2184 90.8282 34.9704 90.3004 34.8287C89.7725 34.687 89.1039 34.6161 88.2945 34.6161C86.9572 34.6161 85.9367 34.7933 85.2329 35.1475C84.4939 35.5018 84.142 35.9977 84.142 36.6708C84.142 37.3084 84.3883 37.7689 84.8458 38.0877C85.3033 38.4066 86.1479 38.6545 87.3443 38.8316L90.4059 39.2922C92.1303 39.5401 93.3972 40.0361 94.2065 40.7446C95.0159 41.4531 95.403 42.4449 95.403 43.6848C95.403 45.1018 94.8048 46.1645 93.6083 46.9438C92.4118 47.7232 90.7578 48.1128 88.6112 48.1128C86.2886 48.1128 84.4939 47.6878 83.2974 46.873C82.1009 46.0582 81.3971 44.783 81.186 43.0826H83.8253C84.0012 44.1099 84.4587 44.8538 85.2329 45.3143C86.0071 45.7748 87.1332 46.0228 88.6112 46.0228C89.9485 46.0228 90.969 45.8103 91.6728 45.4206C92.3766 45.0309 92.7285 44.4641 92.7285 43.7202C92.7285 43.118 92.4822 42.6221 91.9895 42.3032C91.4969 41.949 90.7578 41.701 89.7021 41.5593L87.0628 41.1697C85.6904 40.9571 84.6347 40.6737 83.8253 40.3195C83.0159 39.9652 82.4528 39.5047 82.1009 38.9025C81.749 38.3357 81.5731 37.6272 81.5731 36.777C81.5731 35.4309 82.1713 34.4036 83.3678 33.6597C84.5643 32.9158 86.2182 32.5615 88.3649 32.5615C89.7021 32.5615 90.793 32.7032 91.6728 32.9866C92.5526 33.27 93.2916 33.7305 93.8194 34.3327C94.3473 34.935 94.7696 35.7143 95.0159 36.6708L92.5174 36.9542Z" fill="#7C7C7C"/>
<path d="M13.9355 47.6866L12.2464 43.967H4.46922L2.74487 47.6866H0L6.96776 32.8438H9.8182L16.786 47.6866H13.9355ZM8.3402 35.3589L5.38418 41.8061H11.261L8.3402 35.3589Z" fill="#7C7C7C"/>
<path d="M20.3391 47.6866V32.8438H22.9784V47.6866H20.3391Z" fill="#7C7C7C"/>
<path d="M39.0253 47.6866L35.7173 41.8416C35.5766 41.8416 35.471 41.877 35.3654 41.877C35.2599 41.877 35.1191 41.877 35.0135 41.877H30.6851V47.6866H28.1513V32.8438H35.1895C39.1308 32.8438 41.1015 34.3316 41.1015 37.3427C41.1015 39.3619 40.1514 40.6726 38.2159 41.3456L41.9461 47.6866H39.0253ZM35.0487 39.7161C36.2452 39.7161 37.125 39.539 37.688 39.1493C38.2511 38.7596 38.5326 38.1574 38.5326 37.3427C38.5326 36.5279 38.2511 35.9257 37.7232 35.536C37.1953 35.1818 36.3156 34.9692 35.0839 34.9692H30.6851V39.7161H35.0487Z" fill="#7C7C7C"/>
<path d="M84.8091 21.1865L79.9528 12.72H86.6038L85.0554 10.3466H78.5803L73.0202 0.640302C72.8091 0.286057 72.422 0.0380859 71.9997 0.0380859C71.5774 0.0380859 71.1903 0.250633 70.9791 0.640302L65.419 10.3112H57.3955L59.0143 12.6846H75.4132L74.0407 10.3112H68.1639L71.7533 4.00562C71.8589 3.8285 72.1404 3.8285 72.246 4.00562L82.6625 22.1784C82.8384 22.4618 82.6273 22.816 82.3106 22.816H61.6888C61.3721 22.816 61.1609 22.4618 61.3369 22.1784L65.8765 14.2433H63.1668L59.2255 21.1511C58.768 21.9658 58.6976 22.9577 59.1199 23.7725C59.5774 24.6581 60.4571 25.1894 61.4425 25.1894H82.6625C83.6478 25.1894 84.5276 24.6581 84.985 23.7725C85.337 22.9931 85.2666 22.0012 84.8091 21.1865Z" fill="#7C7C7C"/>
</svg>
