<svg width="25" height="24" viewBox="0 0 25 24" fill="none" xmlns="http://www.w3.org/2000/svg">
<path d="M12.803 6.11816C11.5843 6.11816 10.393 6.4542 9.37969 7.08378C8.36638 7.71336 7.5766 8.60821 7.11022 9.65516C6.64384 10.7021 6.52182 11.8541 6.75958 12.9656C6.99733 14.077 7.58419 15.098 8.44595 15.8993C9.3077 16.7006 10.4056 17.2463 11.6009 17.4673C12.7962 17.6884 14.0352 17.5749 15.1611 17.1413C16.287 16.7076 17.2494 15.9732 17.9265 15.031C18.6035 14.0888 18.9649 12.981 18.9649 11.8478C18.9649 11.0954 18.8056 10.3503 18.4959 9.65514C18.1862 8.95998 17.7324 8.32835 17.1602 7.7963C16.588 7.26425 15.9087 6.84221 15.1611 6.55428C14.4135 6.26634 13.6122 6.11815 12.803 6.11816ZM12.803 15.5675C12.0119 15.5675 11.2384 15.3493 10.5806 14.9406C9.92274 14.5318 9.41001 13.9509 9.10724 13.2712C8.80446 12.5915 8.72525 11.8436 8.87961 11.1221C9.03396 10.4005 9.41496 9.73772 9.97442 9.21751C10.5339 8.69731 11.2467 8.34304 12.0227 8.19952C12.7986 8.056 13.603 8.12967 14.3339 8.41121C15.0649 8.69275 15.6897 9.16952 16.1292 9.78123C16.5688 10.3929 16.8034 11.1121 16.8034 11.8478C16.8034 12.3363 16.7 12.82 16.499 13.2713C16.298 13.7227 16.0033 14.1327 15.6318 14.4781C15.2604 14.8236 14.8193 15.0976 14.334 15.2845C13.8486 15.4714 13.3284 15.5675 12.803 15.5675Z" fill="#7C7C7C"/>
<path d="M24.7306 7.24736C24.7109 6.32174 24.5225 5.40594 24.1732 4.53896C23.8714 3.79458 23.3991 3.12013 22.7891 2.56233C22.1901 1.99453 21.4649 1.55527 20.6643 1.27526C19.732 0.950314 18.747 0.775067 17.7516 0.757005C16.4721 0.702843 16.063 0.689453 12.8042 0.689453C9.5454 0.689453 9.13605 0.702017 7.85584 0.757005C6.8604 0.775296 5.87552 0.950536 4.94314 1.27526C4.14238 1.55553 3.41695 1.99475 2.81739 2.56233C2.20642 3.11939 1.73401 3.79406 1.43331 4.53896C1.08409 5.40594 0.89563 6.32174 0.875955 7.24736C0.816807 8.43707 0.803223 8.81746 0.803223 11.8477C0.803223 14.8779 0.816807 15.2582 0.875931 16.448C0.895609 17.3736 1.08408 18.2894 1.43331 19.1564C1.73409 19.9013 2.2065 20.5759 2.81739 21.133C3.41724 21.7003 4.14259 22.1394 4.94314 22.42C5.87555 22.7446 6.86041 22.9199 7.85584 22.9383C9.13605 22.9924 9.54441 23.0059 12.8032 23.0059C16.062 23.0059 16.4711 22.9933 17.7506 22.9383C18.746 22.92 19.7309 22.7448 20.6633 22.42C21.4606 22.1334 22.1846 21.695 22.7891 21.133C23.3935 20.571 23.865 19.8977 24.1732 19.1564C24.5228 18.2895 24.7113 17.3736 24.7306 16.448C24.7888 15.2574 24.8023 14.8779 24.8023 11.8477C24.8023 8.81746 24.7888 8.43707 24.7306 7.24736ZM22.5718 16.357C22.5625 17.0646 22.4229 17.7655 22.159 18.4292C21.9592 18.9104 21.6534 19.3473 21.2611 19.712C20.8687 20.0766 20.3987 20.3608 19.8811 20.5464C19.1675 20.7923 18.4136 20.9222 17.6526 20.9302C16.3877 20.9842 16.0078 20.9951 12.8032 20.9951C9.59854 20.9951 9.21967 20.9842 7.95515 20.9302C7.19413 20.9221 6.4403 20.7923 5.72665 20.5464C5.20543 20.3672 4.73384 20.0821 4.34637 19.7117C3.94747 19.3522 3.6407 18.9139 3.44877 18.4292C3.1842 17.7656 3.04455 17.0647 3.03597 16.357C2.97777 15.1808 2.96619 14.8276 2.96619 11.8478C2.96619 8.86794 2.97877 8.51566 3.03597 7.3385C3.04555 6.63097 3.18517 5.93018 3.44877 5.26641C3.64138 4.78175 3.94806 4.34324 4.34637 3.98295C4.73317 3.61183 5.20495 3.32654 5.72665 3.14831C6.44027 2.90233 7.19413 2.77249 7.95515 2.76447C9.22003 2.71037 9.59997 2.69959 12.8032 2.69959C16.0063 2.69959 16.3866 2.71129 17.6526 2.76447C18.4135 2.77339 19.1672 2.9032 19.8811 3.14831C20.3988 3.33382 20.869 3.61815 21.2614 3.98297C21.6537 4.34778 21.9595 4.785 22.159 5.26643C22.4235 5.92996 22.5631 6.6309 22.5718 7.33851C22.63 8.5157 22.6416 8.86801 22.6416 11.8478C22.6416 14.8275 22.63 15.1798 22.5718 16.357H22.5718Z" fill="#7C7C7C"/>
<path d="M19.2095 4.55273H19.209C18.8272 4.5528 18.461 4.69389 18.1911 4.94498C17.9211 5.19606 17.7695 5.53657 17.7695 5.89161C17.7696 6.24665 17.9213 6.58713 18.1913 6.83817C18.4613 7.08921 18.8275 7.23024 19.2093 7.23024C19.5911 7.23024 19.9573 7.08921 20.2273 6.83817C20.4973 6.58713 20.649 6.24665 20.649 5.89161C20.6491 5.53657 20.4974 5.19606 20.2275 4.94498C19.9575 4.69389 19.5914 4.5528 19.2095 4.55273Z" fill="#7C7C7C"/>
</svg>
