<svg width="25" height="25" viewBox="0 0 25 25" fill="none" xmlns="http://www.w3.org/2000/svg">
<path d="M22.5145 0.38249H1.79774C1.56486 0.379351 1.33363 0.420774 1.11724 0.504394C0.900862 0.588015 0.703567 0.712194 0.536627 0.869841C0.369687 1.02749 0.236373 1.21551 0.144298 1.42318C0.0522229 1.63085 0.00318993 1.85409 0 2.08016V22.4284C0.00318993 22.6545 0.0522229 22.8777 0.144298 23.0854C0.236373 23.293 0.369687 23.4811 0.536627 23.6387C0.703567 23.7963 0.900862 23.9205 1.11724 24.0041C1.33363 24.0878 1.56486 24.1292 1.79774 24.1261H22.5145C22.7474 24.1292 22.9786 24.0878 23.195 24.0041C23.4114 23.9205 23.6087 23.7963 23.7756 23.6387C23.9425 23.4811 24.0759 23.293 24.1679 23.0854C24.26 22.8777 24.309 22.6545 24.3122 22.4284V2.08016C24.309 1.85409 24.26 1.63085 24.1679 1.42318C24.0759 1.21551 23.9425 1.02749 23.7756 0.869841C23.6087 0.712194 23.4114 0.588015 23.195 0.504394C22.9786 0.420774 22.7474 0.379351 22.5145 0.38249ZM7.37438 20.2559H3.70554V9.57125H7.37438V20.2559ZM5.53996 8.0754C5.03398 8.0754 4.54872 7.88028 4.19094 7.53297C3.83316 7.18565 3.63216 6.71459 3.63216 6.22341C3.63216 5.73223 3.83316 5.26116 4.19094 4.91385C4.54872 4.56653 5.03398 4.37141 5.53996 4.37141C5.80864 4.34183 6.08072 4.36767 6.33839 4.44725C6.59607 4.52683 6.83352 4.65834 7.03521 4.83318C7.23689 5.00801 7.39826 5.22223 7.50875 5.46181C7.61924 5.70139 7.67635 5.96092 7.67635 6.22341C7.67635 6.4859 7.61924 6.74543 7.50875 6.985C7.39826 7.22458 7.23689 7.4388 7.03521 7.61364C6.83352 7.78848 6.59607 7.91999 6.33839 7.99956C6.08072 8.07914 5.80864 8.10498 5.53996 8.0754ZM20.6067 20.2559H16.9378V14.5218C16.9378 13.0853 16.412 12.1474 15.079 12.1474C14.6664 12.1504 14.2647 12.276 13.928 12.5073C13.5912 12.7387 13.3356 13.0647 13.1956 13.4415C13.0999 13.7205 13.0585 14.0143 13.0733 14.3081V20.244H9.40448C9.40448 20.244 9.40448 10.5329 9.40448 9.55938H13.0733V11.0671C13.4066 10.5057 13.8914 10.0432 14.4754 9.72938C15.0594 9.41559 15.7205 9.26241 16.3875 9.28633C18.8334 9.28633 20.6067 10.8178 20.6067 14.1063V20.2559Z" fill="#7C7C7C"/>
</svg>
