<svg width="174" height="24" viewBox="0 0 174 24" fill="none" xmlns="http://www.w3.org/2000/svg">
<path d="M134.767 19.5894V7.56074H129.019V5.44141H142.987V7.56074H137.239V19.5894H134.767Z" fill="white"/>
<path d="M146.436 19.5894V5.44141H148.965V17.47H157.99L157.645 19.5894H146.436Z" fill="white"/>
<path d="M161.209 19.5894V5.44141H172.762V7.56074H163.738V11.2266H172.36V13.3459H163.738V17.47H173.222L172.877 19.5894H161.209Z" fill="white"/>
<path d="M92.5758 14.8351C92.2884 16.4962 91.5411 17.7564 90.334 18.6156C89.0694 19.4747 87.4599 19.933 85.3906 19.933C83.8386 19.933 82.459 19.6466 81.3094 19.0738C80.1598 18.501 79.2401 17.6418 78.6078 16.4962C77.9755 15.3506 77.6306 14.0332 77.6306 12.4867C77.6306 11.0547 77.918 9.73727 78.5503 8.64897C79.1826 7.50338 80.0448 6.6442 81.2519 6.01412C82.4015 5.38405 83.7811 5.09766 85.3906 5.09766C89.1844 5.09766 91.5411 6.70148 92.4033 9.85183L89.8741 10.2528C89.5293 9.22176 88.9544 8.41985 88.2647 7.96162C87.5749 7.50338 86.5977 7.27427 85.3906 7.27427C83.8386 7.27427 82.574 7.7325 81.6543 8.70625C80.7346 9.68 80.2747 10.9401 80.2747 12.6012C80.2747 14.2623 80.7346 15.5798 81.6543 16.4962C82.574 17.4127 83.8386 17.9282 85.4481 17.9282C86.7701 17.9282 87.7473 17.6991 88.4946 17.1836C89.2418 16.6681 89.7017 15.9234 89.9891 14.8924H92.5758V14.8351Z" fill="white"/>
<path d="M108.096 19.5894L106.486 16.0381H99.0137L97.3467 19.5894H94.7026L101.37 5.44141H104.13L110.855 19.5894H108.096ZM102.693 7.84713L99.8184 13.976H105.509L102.693 7.84713Z" fill="white"/>
<path d="M123.616 9.33617C123.386 8.76338 123.098 8.36242 122.754 8.01875C122.409 7.67507 122.006 7.44595 121.489 7.3314C120.972 7.15956 120.339 7.10228 119.535 7.10228C118.27 7.10228 117.293 7.27412 116.546 7.61779C115.856 7.96147 115.511 8.4197 115.511 9.04977C115.511 9.62257 115.741 10.0808 116.201 10.4245C116.661 10.7109 117.465 10.94 118.615 11.1118L121.546 11.5701C123.213 11.7992 124.421 12.3147 125.168 12.9448C125.915 13.6321 126.317 14.5486 126.317 15.7514C126.317 17.0689 125.743 18.0999 124.593 18.8445C123.443 19.5892 121.834 19.9328 119.765 19.9328C117.523 19.9328 115.798 19.5319 114.649 18.7872C113.499 17.9853 112.809 16.7825 112.637 15.1787H115.166C115.338 16.1524 115.798 16.8397 116.546 17.298C117.293 17.7562 118.385 17.9853 119.822 17.9853C121.087 17.9853 122.064 17.8135 122.754 17.4125C123.443 17.0116 123.788 16.4961 123.788 15.8087C123.788 15.2359 123.558 14.7777 123.098 14.434C122.639 14.0903 121.891 13.8612 120.914 13.7467L118.385 13.3457C117.063 13.1739 116.028 12.8875 115.281 12.5438C114.534 12.2001 113.959 11.7419 113.614 11.2264C113.269 10.6536 113.097 10.0235 113.097 9.22161C113.097 7.96147 113.671 6.98772 114.821 6.24309C115.971 5.55574 117.58 5.15479 119.65 5.15479C120.914 5.15479 122.006 5.26934 122.869 5.55574C123.731 5.84214 124.421 6.24309 124.938 6.81588C125.455 7.38868 125.858 8.13331 126.087 9.04977L123.616 9.33617Z" fill="white"/>
<path d="M47.9127 19.5894L46.3032 16.0381H38.8306L37.1636 19.5894H34.5195L41.1873 5.44141H43.9464L50.6718 19.5894H47.9127ZM42.5094 7.84713L39.6353 13.976H45.326L42.5094 7.84713Z" fill="white"/>
<path d="M54.1207 19.5894V5.44141H56.6498V19.5894H54.1207Z" fill="white"/>
<path d="M72.0549 19.5894L68.8359 14.0333C68.721 14.0333 68.606 14.0333 68.491 14.0333C68.3761 14.0333 68.2611 14.0333 68.1461 14.0333H64.0075V19.5894H61.5933V5.44141H68.3761C72.1699 5.44141 74.0667 6.87339 74.0667 9.73735C74.0667 11.6276 73.147 12.945 71.3076 13.5178L74.8715 19.5894H72.0549ZM68.2611 12.0285C69.4107 12.0285 70.273 11.8567 70.7903 11.4557C71.3651 11.1121 71.595 10.5393 71.595 9.73735C71.595 8.93544 71.3076 8.36265 70.7903 8.01897C70.273 7.6753 69.4107 7.50346 68.2611 7.50346H64.0075V12.0285H68.2611Z" fill="white"/>
<path d="M27.1618 20.1623L22.4484 12.0859H28.8863L27.3918 9.79475H21.1263L15.838 0.572792C15.6081 0.229117 15.2632 0 14.8608 0C14.4584 0 14.0561 0.229117 13.8836 0.572792L8.53783 9.79475H0.777832L2.32983 12.0859H18.1372L16.8152 9.79475H11.1245L14.5734 3.78043C14.6884 3.60859 14.9183 3.60859 15.0332 3.78043L25.0925 21.136C25.2649 21.4224 25.035 21.7088 24.7476 21.7088L4.9165 21.7661C4.62909 21.7661 4.39917 21.4224 4.57161 21.1933L8.9402 13.6325H6.29605L2.50228 20.1623C2.04242 20.9069 1.98494 21.8807 2.38731 22.6826C2.84717 23.4845 3.65191 24 4.62909 24H25.035C25.9547 24 26.8169 23.4845 27.2768 22.6253C27.6792 21.8807 27.6217 20.9069 27.1618 20.1623Z" fill="white"/>
</svg>
