<svg width="25" height="23" viewBox="0 0 25 23" fill="none" xmlns="http://www.w3.org/2000/svg">
<path d="M22.1036 0H2.72864C1.45148 0 0.416138 0.962715 0.416138 2.15028V20.1662C0.416138 21.3537 1.45148 22.3165 2.72864 22.3165H22.1036C23.3808 22.3165 24.4161 21.3537 24.4161 20.1662V2.15028C24.4161 0.962715 23.3808 0 22.1036 0Z" fill="#7C7C7C"/>
<path fill-rule="evenodd" clip-rule="evenodd" d="M19.9788 6.85815C19.4163 7.09061 18.7913 7.20684 18.1663 7.32307C18.8538 6.91626 19.3538 6.39322 19.5413 5.69583C18.9788 6.04453 18.2913 6.27699 17.6038 6.39322C17.0413 5.87018 16.2288 5.52148 15.2913 5.52148C13.6038 5.52148 12.2288 6.80003 12.2288 8.36916C12.2288 8.60162 12.2288 8.77597 12.2913 9.00843C9.72876 8.8922 7.41626 7.72988 5.91626 6.04453C5.60376 6.45134 5.47876 6.91626 5.47876 7.43931C5.47876 8.42727 6.04126 9.29901 6.85376 9.82205C6.35376 9.82205 5.85376 9.70582 5.41626 9.47336C5.41626 9.47336 5.41626 9.47336 5.41626 9.53147C5.41626 9.88017 5.54126 10.2289 5.66626 10.5194C6.04126 11.4493 6.91626 12.0886 7.91626 12.321C7.66626 12.3791 7.41626 12.3791 7.10376 12.3791C6.91626 12.3791 6.72876 12.3791 6.54126 12.321C6.91626 13.4833 8.10376 14.297 9.41626 14.297C8.35376 15.1106 7.04126 15.5174 5.60376 15.5174C5.29126 15.5174 5.10376 15.5174 4.85376 15.5174C6.22876 16.331 7.85376 16.7959 9.60376 16.7959C14.4788 16.7959 17.4163 13.6577 18.2288 10.4032C18.3538 9.82205 18.4163 9.24089 18.4163 8.65974C18.4163 8.5435 18.4163 8.42727 18.4163 8.31104C19.0413 7.90423 19.5413 7.43931 19.9788 6.85815Z" fill="black"/>
</svg>
