<svg width="114" height="69" viewBox="0 0 114 69" fill="none" xmlns="http://www.w3.org/2000/svg">
<g clip-path="url(#clip0_91_3492)">
<path d="M113 66.7H72.4C72.1 66.7 71.9 66.5 71.9 66.2V54.5H72.9V65.7H112.5V2.60001H72.4L55.6 14.6C55.4 14.7 55.2 14.7 55 14.6L38.1 2.60001H1V65.7H37.7V54.5H38.7V66.2C38.7 66.5 38.5 66.7 38.2 66.7H0.5C0.2 66.7 0 66.5 0 66.2V2.10001C0 1.80001 0.2 1.60001 0.5 1.60001H38.2C38.3 1.60001 38.4 1.60001 38.5 1.70001L55.3 13.6L71.9 1.70001C72 1.60001 72.1 1.60001 72.2 1.60001H113C113.3 1.60001 113.5 1.80001 113.5 2.10001V66.2C113.5 66.5 113.3 66.7 113 66.7Z" fill="#60607F"/>
<path d="M9.20001 3.7C10.0837 3.7 10.8 2.98366 10.8 2.1C10.8 1.21634 10.0837 0.5 9.20001 0.5C8.31635 0.5 7.60001 1.21634 7.60001 2.1C7.60001 2.98366 8.31635 3.7 9.20001 3.7Z" fill="black"/>
<path d="M9.20001 4.1C8.10001 4.1 7.10001 3.2 7.10001 2C7.20001 0.9 8.10001 0 9.20001 0C10.3 0 11.3 0.9 11.3 2.1C11.3 3.2 10.4 4.1 9.20001 4.1ZM9.20001 1C8.60001 1 8.20001 1.5 8.20001 2.1C8.20001 2.7 8.70001 3.2 9.30001 3.2C9.90001 3.2 10.4 2.7 10.4 2.1C10.3 1.5 9.80001 1 9.20001 1Z" fill="white"/>
<path d="M17.8 3.7C18.6837 3.7 19.4 2.98366 19.4 2.1C19.4 1.21634 18.6837 0.5 17.8 0.5C16.9163 0.5 16.2 1.21634 16.2 2.1C16.2 2.98366 16.9163 3.7 17.8 3.7Z" fill="black"/>
<path d="M17.8 4.09999C16.7 4.09999 15.7 3.19999 15.7 1.99999C15.7 0.899994 16.6 -0.100006 17.8 -0.100006C18.9 -0.100006 19.9 0.799994 19.9 1.99999C19.9 3.19999 18.9 4.09999 17.8 4.09999ZM17.8 0.999994C17.2 0.999994 16.7 1.49999 16.7 2.09999C16.7 2.69999 17.2 3.19999 17.8 3.19999C18.4 3.19999 18.9 2.69999 18.9 2.09999C18.9 1.49999 18.4 0.999994 17.8 0.999994Z" fill="white"/>
<path d="M26.3 3.7C27.1837 3.7 27.9 2.98366 27.9 2.1C27.9 1.21634 27.1837 0.5 26.3 0.5C25.4163 0.5 24.7 1.21634 24.7 2.1C24.7 2.98366 25.4163 3.7 26.3 3.7Z" fill="black"/>
<path d="M26.3 4.09999C25.2 4.09999 24.2 3.19999 24.2 1.99999C24.2 0.899994 25.1 -0.100006 26.3 -0.100006C27.4 -0.100006 28.4 0.799994 28.4 1.99999C28.4 3.19999 27.5 4.09999 26.3 4.09999ZM26.3 0.999994C25.7 0.999994 25.2 1.49999 25.2 2.09999C25.2 2.69999 25.7 3.19999 26.3 3.19999C26.9 3.19999 27.4 2.69999 27.4 2.09999C27.4 1.49999 26.9 0.999994 26.3 0.999994Z" fill="white"/>
<path d="M103.8 3.7C104.684 3.7 105.4 2.98366 105.4 2.1C105.4 1.21634 104.684 0.5 103.8 0.5C102.916 0.5 102.2 1.21634 102.2 2.1C102.2 2.98366 102.916 3.7 103.8 3.7Z" fill="black"/>
<path d="M103.8 4.09999C102.7 4.09999 101.7 3.19999 101.7 1.99999C101.7 0.899994 102.6 -0.100006 103.8 -0.100006C105 -0.100006 105.9 0.799994 105.9 1.99999C105.9 3.19999 104.9 4.09999 103.8 4.09999ZM103.8 0.999994C103.2 0.999994 102.7 1.49999 102.7 2.09999C102.7 2.69999 103.2 3.19999 103.8 3.19999C104.4 3.19999 104.9 2.69999 104.9 2.09999C104.9 1.49999 104.4 0.999994 103.8 0.999994Z" fill="white"/>
<path d="M9.20001 67.8C10.0837 67.8 10.8 67.0837 10.8 66.2C10.8 65.3163 10.0837 64.6 9.20001 64.6C8.31635 64.6 7.60001 65.3163 7.60001 66.2C7.60001 67.0837 8.31635 67.8 9.20001 67.8Z" fill="black"/>
<path d="M9.20001 68.3C8.10001 68.3 7.10001 67.4 7.10001 66.2C7.10001 65.1 8.00001 64.1 9.20001 64.1C10.3 64.1 11.3 65 11.3 66.2C11.3 67.4 10.4 68.3 9.20001 68.3ZM9.20001 65.1C8.60001 65.1 8.10001 65.6 8.10001 66.2C8.10001 66.8 8.60001 67.3 9.20001 67.3C9.80001 67.3 10.3 66.8 10.3 66.2C10.3 65.6 9.80001 65.1 9.20001 65.1Z" fill="white"/>
<path d="M103.8 67.8C104.684 67.8 105.4 67.0837 105.4 66.2C105.4 65.3163 104.684 64.6 103.8 64.6C102.916 64.6 102.2 65.3163 102.2 66.2C102.2 67.0837 102.916 67.8 103.8 67.8Z" fill="black"/>
<path d="M103.8 68.3C102.7 68.3 101.7 67.4 101.7 66.2C101.7 65.1 102.6 64.1 103.8 64.1C105 64.1 105.9 65 105.9 66.2C105.9 67.4 104.9 68.3 103.8 68.3ZM103.8 65.1C103.2 65.1 102.7 65.6 102.7 66.2C102.7 66.8 103.2 67.3 103.8 67.3C104.4 67.3 104.9 66.8 104.9 66.2C104.9 65.6 104.4 65.1 103.8 65.1Z" fill="white"/>
<path d="M96.1 67.8C96.9837 67.8 97.7 67.0837 97.7 66.2C97.7 65.3163 96.9837 64.6 96.1 64.6C95.2163 64.6 94.5 65.3163 94.5 66.2C94.5 67.0837 95.2163 67.8 96.1 67.8Z" fill="black"/>
<path d="M96.1 68.3C95 68.3 94 67.4 94 66.2C94 65.1 94.9 64.1 96.1 64.1C97.2 64.1 98.2 65 98.2 66.2C98.2 67.4 97.3 68.3 96.1 68.3ZM96.1 65.1C95.5 65.1 95 65.6 95 66.2C95 66.8 95.5 67.3 96.1 67.3C96.7 67.3 97.2 66.8 97.2 66.2C97.2 65.6 96.7 65.1 96.1 65.1Z" fill="white"/>
<path d="M88.4 67.8C89.2837 67.8 90 67.0837 90 66.2C90 65.3163 89.2837 64.6 88.4 64.6C87.5163 64.6 86.8 65.3163 86.8 66.2C86.8 67.0837 87.5163 67.8 88.4 67.8Z" fill="black"/>
<path d="M88.4 68.3C87.3 68.3 86.3 67.4 86.3 66.2C86.3 65.1 87.2 64.1 88.4 64.1C89.5 64.1 90.5 65 90.5 66.2C90.5 67.4 89.6 68.3 88.4 68.3ZM88.4 65.1C87.8 65.1 87.3 65.6 87.3 66.2C87.3 66.8 87.8 67.3 88.4 67.3C89 67.3 89.5 66.8 89.5 66.2C89.5 65.6 89 65.1 88.4 65.1Z" fill="white"/>
<path d="M48.2 27.6H15.9V54.6H48.2V27.6Z" fill="#131515"/>
<path d="M48.3 55.1H15.9C15.6 55.1 15.4 54.9 15.4 54.6V27.6C15.4 27.3 15.6 27.1 15.9 27.1H48.2C48.5 27.1 48.7 27.3 48.7 27.6V54.6C48.8 54.9 48.6 55.1 48.3 55.1ZM16.4 54.1H47.7V28.1H16.4V54.1Z" fill="white"/>
<path d="M94.8 27.6H62.5V54.6H94.8V27.6Z" fill="#131515"/>
<path d="M94.9 55.1H62.5C62.2 55.1 62 54.9 62 54.6V27.6C62 27.3 62.2 27.1 62.5 27.1H94.8C95.1 27.1 95.3 27.3 95.3 27.6V54.6C95.4 54.9 95.2 55.1 94.9 55.1ZM63 54.1H94.3V28.1H63V54.1Z" fill="white"/>
<path d="M78.7 15.7H32.1V54.7H78.7V15.7Z" fill="#131515"/>
<path d="M78.7 55.1H32.1C31.8 55.1 31.6 54.9 31.6 54.6V15.6C31.6 15.3 31.8 15.1 32.1 15.1H78.7C79 15.1 79.2 15.3 79.2 15.6V54.6C79.2 54.9 79 55.1 78.7 55.1ZM32.6 54.1H78.2V16.1H32.6V54.1Z" fill="white"/>
<path d="M42.5 21.8H37.7V34.1H42.5V21.8Z" fill="#131515"/>
<path d="M42.5 34.6H37.7C37.4 34.6 37.2 34.4 37.2 34.1V21.8C37.2 21.5 37.4 21.3 37.7 21.3H42.5C42.8 21.3 43 21.5 43 21.8V34.1C43 34.4 42.8 34.6 42.5 34.6ZM38.2 33.6H42V22.3H38.2V33.6Z" fill="white"/>
<path d="M52.9 21.8H48.1V34.1H52.9V21.8Z" fill="#131515"/>
<path d="M52.9 34.6H48.1C47.8 34.6 47.6 34.4 47.6 34.1V21.8C47.6 21.5 47.8 21.3 48.1 21.3H52.9C53.2 21.3 53.4 21.5 53.4 21.8V34.1C53.4 34.4 53.2 34.6 52.9 34.6ZM48.6 33.6H52.4V22.3H48.6V33.6Z" fill="white"/>
<path d="M63.3 21.8H58.5V34.1H63.3V21.8Z" fill="#131515"/>
<path d="M63.3 34.6H58.5C58.2 34.6 58 34.4 58 34.1V21.8C58 21.5 58.2 21.3 58.5 21.3H63.3C63.6 21.3 63.8 21.5 63.8 21.8V34.1C63.8 34.4 63.6 34.6 63.3 34.6ZM59 33.6H62.8V22.3H59V33.6Z" fill="white"/>
<path d="M73.7 21.8H68.9V34.1H73.7V21.8Z" fill="#131515"/>
<path d="M73.7 34.6H68.9C68.6 34.6 68.4 34.4 68.4 34.1V21.8C68.4 21.5 68.6 21.3 68.9 21.3H73.7C74 21.3 74.2 21.5 74.2 21.8V34.1C74.2 34.4 74 34.6 73.7 34.6ZM69.4 33.6H73.2V22.3H69.4V33.6Z" fill="white"/>
<path d="M63.3 38.9H48.3V54.7H63.3V38.9Z" fill="#131515"/>
<path d="M63.3 55.1H48.3C48 55.1 47.8 54.9 47.8 54.6V38.9C47.8 38.6 48 38.4 48.3 38.4H63.3C63.6 38.4 63.8 38.6 63.8 38.9V54.7C63.8 54.9 63.6 55.1 63.3 55.1ZM48.8 54.1H62.8V39.4H48.8V54.1Z" fill="white"/>
<path d="M27.3 35.2H21.4V41.1H27.3V35.2Z" fill="#131515"/>
<path d="M27.3 41.5H21.4C21.1 41.5 20.9 41.3 20.9 41V35.1C20.9 34.8 21.1 34.6 21.4 34.6H27.3C27.6 34.6 27.8 34.8 27.8 35.1V41C27.8 41.3 27.6 41.5 27.3 41.5ZM21.9 40.5H26.8V35.6H21.9V40.5Z" fill="white"/>
<path d="M89.8 35.2H83.9V41.1H89.8V35.2Z" fill="#131515"/>
<path d="M89.8 41.5H83.9C83.6 41.5 83.4 41.3 83.4 41V35.1C83.4 34.8 83.6 34.6 83.9 34.6H89.8C90.1 34.6 90.3 34.8 90.3 35.1V41C90.3 41.3 90.1 41.5 89.8 41.5ZM84.4 40.5H89.3V35.6H84.4V40.5Z" fill="white"/>
</g>
<defs>
<clipPath id="clip0_91_3492">
<rect width="113.5" height="68.3" fill="white"/>
</clipPath>
</defs>
</svg>
