<svg width="99" height="115" viewBox="0 0 99 115" fill="none" xmlns="http://www.w3.org/2000/svg">
<g clip-path="url(#clip0_91_4018)">
<path d="M49.5 114.2C49.4 114.2 49.3 114.2 49.3 114.1L0.3 85.8C0.1 85.7 0 85.6 0 85.4V28.8C0 28.6 0.1 28.5 0.2 28.4L49.2 0.0999939C49.4 -6.10203e-06 49.5 -6.10203e-06 49.7 0.0999939L98.7 28.4C98.9 28.5 98.9 28.7 98.9 28.8V85.4C98.9 85.6 98.8 85.7 98.7 85.8L70.2 102.3L69.7 101.4L98 85.1V29.1L49.5 1.09999L1 29.1V85.1L49.5 113.1L62.4 105.4L59.7 101.8C59.6 101.7 59.6 101.5 59.6 101.4C59.6 101.3 59.7 101.1 59.8 101.1L92.7 82.1V32.1L49.5 7.09999L6.3 32.1V82L48.4 106.3L47.9 107.2L5.5 82.8C5.3 82.7 5.3 82.5 5.3 82.4V31.8C5.3 31.6 5.4 31.5 5.5 31.4L49.3 6.19999C49.5 6.09999 49.6 6.09999 49.8 6.19999L93.5 31.5C93.7 31.6 93.7 31.8 93.7 31.9V82.4C93.7 82.6 93.6 82.7 93.5 82.8L60.9 101.6L63.5 105.2C63.6 105.3 63.6 105.5 63.6 105.6C63.6 105.7 63.5 105.9 63.4 105.9L49.8 114.1C49.7 114.2 49.6 114.2 49.5 114.2Z" fill="#60607F"/>
<path d="M49.5 109.7C48.4 109.7 47.4 108.8 47.4 107.6C47.4 106.4 48.3 105.5 49.5 105.5C50.7 105.5 51.6 106.4 51.6 107.6C51.6 108.8 50.7 109.7 49.5 109.7ZM49.5 106.5C48.9 106.5 48.4 107 48.4 107.6C48.4 108.2 48.9 108.7 49.5 108.7C50.1 108.7 50.6 108.2 50.6 107.6C50.6 107 50.1 106.5 49.5 106.5Z" fill="white"/>
<path d="M68.7 104.7C67.6 104.7 66.6 103.8 66.6 102.6C66.6 101.5 67.5 100.5 68.7 100.5C69.8 100.5 70.8 101.4 70.8 102.6C70.8 103.8 69.8 104.7 68.7 104.7ZM68.7 101.6C68.1 101.6 67.6 102.1 67.6 102.7C67.6 103.3 68.1 103.8 68.7 103.8C69.3 103.8 69.8 103.3 69.8 102.7C69.8 102.1 69.3 101.6 68.7 101.6Z" fill="white"/>
<path d="M41.1 92.8C41 92.8 40.9 92.8 40.8 92.7L35.5 89.3C35.4 89.2 35.3 89 35.3 88.9V23.7C35.3 23.5 35.4 23.4 35.5 23.3L49.2 15.1C49.4 15 49.6 15 49.7 15.1L66.3 25C66.4 25.1 66.5 25.2 66.5 25.3C66.5 25.4 66.5 25.6 66.4 25.7L63 30.5C62.8 30.7 62.6 30.8 62.3 30.6L49.5 23L41.5 27.6V52.8H58.9V53.8H41C40.7 53.8 40.5 53.6 40.5 53.3V27.3C40.5 27.1 40.6 27 40.8 26.9L49.3 22C49.5 21.9 49.6 21.9 49.8 22L62.5 29.5L65.4 25.4L49.6 15.9L36.3 24V88.7L40.6 91.4V59.3C40.6 59 40.8 58.8 41.1 58.8H58.9V59.8H41.6V92.3C41.6 92.5 41.5 92.6 41.3 92.7C41.3 92.8 41.2 92.8 41.1 92.8Z" fill="white"/>
<path d="M31.1 87.3C31 87.3 30.9 87.3 30.8 87.2L26.4 84.4C26.3 84.3 26.2 84.2 26.2 84.1L18.8 57V77.8H17.8V53.2C17.8 52.9 18 52.7 18.2 52.7C18.5 52.7 18.7 52.8 18.7 53.1L27 83.7L30.5 85.9V28.2L25.2 31V56.9C25.2 57.1 25 57.4 24.8 57.4C24.6 57.4 24.3 57.3 24.2 57L18 36.5L14.1 39.2V75.3H13.1V38.9C13.1 38.7 13.2 38.6 13.3 38.5L18 35.3C18.1 35.2 18.3 35.2 18.4 35.2C18.5 35.3 18.7 35.4 18.7 35.5L24.1 53.4V30.7C24.1 30.5 24.2 30.3 24.4 30.3L30.8 27C31 26.9 31.1 26.9 31.3 27C31.4 27.1 31.5 27.3 31.5 27.4V86.8C31.5 87 31.4 87.2 31.2 87.2C31.2 87.3 31.2 87.3 31.1 87.3Z" fill="white"/>
<path d="M73 85.7C72.9 85.7 72.8 85.7 72.8 85.6C72.6 85.5 72.5 85.3 72.5 85.2V37L65.6 32.5C65.4 32.4 65.3 32 65.4 31.8L68.4 27.1C68.5 27 68.6 26.9 68.7 26.9C68.8 26.9 69 26.9 69.1 27L86.8 38.2C86.9 38.3 87 38.5 87 38.6V45.2C87 45.4 86.9 45.6 86.7 45.6C86.5 45.7 86.3 45.7 86.2 45.6L79.4 41V81.7C79.4 81.9 79.3 82 79.2 82.1L73.3 85.6C73.1 85.7 73 85.7 73 85.7ZM66.5 31.9L73.2 36.3C73.3 36.4 73.4 36.5 73.4 36.7V84.3L78.3 81.4V40C78.3 39.8 78.4 39.6 78.6 39.6C78.8 39.5 79 39.5 79.1 39.6L85.9 44.2V38.8L68.9 28L66.5 31.9Z" fill="white"/>
<path d="M13.6 78.7C12.5 78.7 11.6 77.8 11.6 76.7C11.6 75.6 12.5 74.7 13.6 74.7C14.7 74.7 15.6 75.6 15.6 76.7C15.5 77.8 14.7 78.7 13.6 78.7ZM13.6 75.8C13.1 75.8 12.6 76.2 12.6 76.8C12.6 77.3 13 77.8 13.6 77.8C14.1 77.8 14.6 77.4 14.6 76.8C14.5 76.2 14.1 75.8 13.6 75.8Z" fill="white"/>
<path d="M18.3 81.2C17.2 81.2 16.3 80.3 16.3 79.2C16.3 78.1 17.2 77.2 18.3 77.2C19.4 77.2 20.3 78.1 20.3 79.2C20.2 80.3 19.4 81.2 18.3 81.2ZM18.3 78.3C17.8 78.3 17.3 78.7 17.3 79.3C17.3 79.8 17.7 80.3 18.3 80.3C18.8 80.3 19.3 79.9 19.3 79.3C19.2 78.7 18.8 78.3 18.3 78.3Z" fill="white"/>
<path d="M60.4 61.4C59.3 61.4 58.4 60.5 58.4 59.4C58.4 58.3 59.3 57.4 60.4 57.4C61.5 57.4 62.4 58.3 62.4 59.4C62.3 60.5 61.4 61.4 60.4 61.4ZM60.4 58.5C59.9 58.5 59.4 58.9 59.4 59.5C59.4 60 59.8 60.5 60.4 60.5C60.9 60.5 61.4 60.1 61.4 59.5C61.3 58.9 60.9 58.5 60.4 58.5Z" fill="white"/>
<path d="M60.4 55.4C59.3 55.4 58.4 54.5 58.4 53.4C58.4 52.3 59.3 51.4 60.4 51.4C61.5 51.4 62.4 52.3 62.4 53.4C62.3 54.5 61.4 55.4 60.4 55.4ZM60.4 52.5C59.9 52.5 59.4 52.9 59.4 53.5C59.4 54 59.8 54.5 60.4 54.5C60.9 54.5 61.4 54.1 61.4 53.5C61.3 52.9 60.9 52.5 60.4 52.5Z" fill="white"/>
</g>
<defs>
<clipPath id="clip0_91_4018">
<rect width="99" height="114.2" fill="white"/>
</clipPath>
</defs>
</svg>
