<svg width="110" height="110" viewBox="0 0 110 110" fill="none" xmlns="http://www.w3.org/2000/svg">
<g clip-path="url(#clip0_91_3601)">
<path d="M55.7 9.10001H54.7V24.4H55.7V9.10001Z" fill="#60607F"/>
<path d="M100.5 53.9H85.2V54.9H100.5V53.9Z" fill="#60607F"/>
<path d="M64.2 23.6H63.2V19.3C63.2 19 63.4 18.8 63.7 18.8H73.6V14.9H74.6V19.3C74.6 19.6 74.4 19.8 74.1 19.8H64.2V23.6Z" fill="#60607F"/>
<path d="M90.2 45.7H86V44.7H89.8V34.8C89.8 34.5 90 34.3 90.3 34.3H94.7V35.3H90.8V45.2C90.7 45.5 90.5 45.7 90.2 45.7Z" fill="#60607F"/>
<path d="M102.8 78.3H95C94.7 78.3 94.5 78.1 94.5 77.8V70C94.5 69.7 94.7 69.5 95 69.5H102.8C103.1 69.5 103.3 69.7 103.3 70V77.8C103.3 78.1 103 78.3 102.8 78.3ZM95.5 77.3H102.3V70.5H95.5V77.3Z" fill="#60607F"/>
<path d="M102.8 39.2H95C94.7 39.2 94.5 39 94.5 38.7V30.9C94.5 30.6 94.7 30.4 95 30.4H102.8C103.1 30.4 103.3 30.6 103.3 30.9V38.7C103.3 39 103 39.2 102.8 39.2ZM95.5 38.2H102.3V31.4H95.5V38.2Z" fill="#60607F"/>
<path d="M109.4 58.8H101.6C101.3 58.8 101.1 58.6 101.1 58.3V50.5C101.1 50.2 101.3 50 101.6 50H109.4C109.7 50 109.9 50.2 109.9 50.5V58.3C109.9 58.5 109.6 58.8 109.4 58.8ZM102.1 57.8H108.9V51H102.1V57.8Z" fill="#60607F"/>
<path d="M94.7 74.4H90.3C90 74.4 89.8 74.2 89.8 73.9V64H86V63H90.3C90.6 63 90.8 63.2 90.8 63.5V73.4H94.7V74.4Z" fill="#60607F"/>
<path d="M47 23.7H46V19.9H36.1C35.8 19.9 35.6 19.7 35.6 19.4V15H36.6V18.9H46.5C46.8 18.9 47 19.1 47 19.4V23.7Z" fill="#60607F"/>
<path d="M24.3 53.9H9V54.9H24.3V53.9Z" fill="#60607F"/>
<path d="M19.3 74.4H14.9V73.4H18.8V63.5C18.8 63.2 19 63 19.3 63H23.6V64H19.8V73.9C19.8 74.2 19.6 74.4 19.3 74.4Z" fill="#60607F"/>
<path d="M23.6 45.7H19.3C19 45.7 18.8 45.5 18.8 45.2V35.3H14.9V34.3H19.3C19.6 34.3 19.8 34.5 19.8 34.8V44.7H23.6V45.7Z" fill="#60607F"/>
<path d="M55.5 85.3H54.5V100.6H55.5V85.3Z" fill="#60607F"/>
<path d="M36.6 94.8H35.6V90.4C35.6 90.1 35.8 89.9 36.1 89.9H46V86.1H47V90.4C47 90.7 46.8 90.9 46.5 90.9H36.6V94.8Z" fill="#60607F"/>
<path d="M74.6 94.7H73.6V90.8H63.7C63.4 90.8 63.2 90.6 63.2 90.3V86H64.2V89.8H74.1C74.4 89.8 74.6 90 74.6 90.3V94.7Z" fill="#60607F"/>
<path d="M27.1 53.9H25.3V54.9H27.1V53.9Z" fill="#60607F"/>
<path d="M30.2 53.9H28.4V54.9H30.2V53.9Z" fill="#60607F"/>
<path d="M33.2 53.9H31.4V54.9H33.2V53.9Z" fill="#60607F"/>
<path d="M27.1 44.7H25.3V45.7H27.1V44.7Z" fill="#60607F"/>
<path d="M30.2 44.7H28.4V45.7H30.2V44.7Z" fill="#60607F"/>
<path d="M33.2 44.7H31.4V45.7H33.2V44.7Z" fill="#60607F"/>
<path d="M27.1 63H25.3V64H27.1V63Z" fill="#60607F"/>
<path d="M30.2 63H28.4V64H30.2V63Z" fill="#60607F"/>
<path d="M33.2 63H31.4V64H33.2V63Z" fill="#60607F"/>
<path d="M78 53.9H76.2V54.9H78V53.9Z" fill="#60607F"/>
<path d="M81 53.9H79.2V54.9H81V53.9Z" fill="#60607F"/>
<path d="M84.1 53.9H82.3V54.9H84.1V53.9Z" fill="#60607F"/>
<path d="M78 44.7H76.2V45.7H78V44.7Z" fill="#60607F"/>
<path d="M81 44.7H79.2V45.7H81V44.7Z" fill="#60607F"/>
<path d="M84.1 44.7H82.3V45.7H84.1V44.7Z" fill="#60607F"/>
<path d="M78 63H76.2V64H78V63Z" fill="#60607F"/>
<path d="M81 63H79.2V64H81V63Z" fill="#60607F"/>
<path d="M84.1 63H82.3V64H84.1V63Z" fill="#60607F"/>
<path d="M55.5 82.3H54.5V84.1H55.5V82.3Z" fill="#60607F"/>
<path d="M55.5 79.2H54.5V81H55.5V79.2Z" fill="#60607F"/>
<path d="M55.5 76.2H54.5V78H55.5V76.2Z" fill="#60607F"/>
<path d="M47 82.3H46V84.1H47V82.3Z" fill="#60607F"/>
<path d="M47 79.2H46V81H47V79.2Z" fill="#60607F"/>
<path d="M47 76.2H46V78H47V76.2Z" fill="#60607F"/>
<path d="M64.5 82.3H63.5V84.1H64.5V82.3Z" fill="#60607F"/>
<path d="M64.5 79.2H63.5V81H64.5V79.2Z" fill="#60607F"/>
<path d="M64.5 76.2H63.5V78H64.5V76.2Z" fill="#60607F"/>
<path d="M55.8 31.6H54.8V33.4H55.8V31.6Z" fill="#60607F"/>
<path d="M55.8 28.5H54.8V30.3H55.8V28.5Z" fill="#60607F"/>
<path d="M55.8 25.5H54.8V27.3H55.8V25.5Z" fill="#60607F"/>
<path d="M47 31.6H46V33.4H47V31.6Z" fill="#60607F"/>
<path d="M47 28.5H46V30.3H47V28.5Z" fill="#60607F"/>
<path d="M47 25.5H46V27.3H47V25.5Z" fill="#60607F"/>
<path d="M64.2 31.6H63.2V33.4H64.2V31.6Z" fill="#60607F"/>
<path d="M64.2 28.5H63.2V30.3H64.2V28.5Z" fill="#60607F"/>
<path d="M64.2 25.5H63.2V27.3H64.2V25.5Z" fill="#60607F"/>
<path d="M14.9 39.2H7.10001C6.80001 39.2 6.60001 39 6.60001 38.7V30.9C6.60001 30.6 6.80001 30.4 7.10001 30.4H14.9C15.2 30.4 15.4 30.6 15.4 30.9V38.7C15.4 39 15.2 39.2 14.9 39.2ZM7.60001 38.2H14.4V31.4H7.60001V38.2Z" fill="#60607F"/>
<path d="M14.9 78.3H7.10001C6.80001 78.3 6.60001 78.1 6.60001 77.8V70C6.60001 69.7 6.80001 69.5 7.10001 69.5H14.9C15.2 69.5 15.4 69.7 15.4 70V77.8C15.4 78.1 15.2 78.3 14.9 78.3ZM7.60001 77.3H14.4V70.5H7.60001V77.3Z" fill="#60607F"/>
<path d="M8.3 58.8H0.5C0.2 58.8 0 58.6 0 58.3V50.5C0 50.2 0.2 50 0.5 50H8.3C8.6 50 8.8 50.2 8.8 50.5V58.3C8.8 58.5 8.6 58.8 8.3 58.8ZM1 57.8H7.8V51H1V57.8Z" fill="#60607F"/>
<path d="M78.7 15.4H70.9C70.6 15.4 70.4 15.2 70.4 14.9V7.10001C70.4 6.80001 70.6 6.60001 70.9 6.60001H78.7C79 6.60001 79.2 6.80001 79.2 7.10001V14.9C79.2 15.2 79 15.4 78.7 15.4ZM71.4 14.4H78.2V7.60001H71.4V14.4Z" fill="#60607F"/>
<path d="M39.6 15.4H31.8C31.5 15.4 31.3 15.2 31.3 14.9V7.10001C31.3 6.80001 31.5 6.60001 31.8 6.60001H39.6C39.9 6.60001 40.1 6.80001 40.1 7.10001V14.9C40.1 15.2 39.9 15.4 39.6 15.4ZM32.3 14.4H39.1V7.60001H32.3V14.4Z" fill="#60607F"/>
<path d="M59.2 8.8H51.4C51.1 8.8 50.9 8.6 50.9 8.3V0.5C50.9 0.2 51.1 0 51.4 0H59.2C59.5 0 59.7 0.2 59.7 0.5V8.3C59.7 8.6 59.4 8.8 59.2 8.8ZM51.9 7.8H58.7V1H51.9V7.8Z" fill="#60607F"/>
<path d="M39.6 103.1H31.8C31.5 103.1 31.3 102.9 31.3 102.6V94.8C31.3 94.5 31.5 94.3 31.8 94.3H39.6C39.9 94.3 40.1 94.5 40.1 94.8V102.6C40.1 102.9 39.9 103.1 39.6 103.1ZM32.3 102.1H39.1V95.3H32.3V102.1Z" fill="#60607F"/>
<path d="M78.7 103.1H70.9C70.6 103.1 70.4 102.9 70.4 102.6V94.8C70.4 94.5 70.6 94.3 70.9 94.3H78.7C79 94.3 79.2 94.5 79.2 94.8V102.6C79.2 102.9 79 103.1 78.7 103.1ZM71.4 102.1H78.2V95.3H71.4V102.1Z" fill="#60607F"/>
<path d="M59.2 109.7H51.4C51.1 109.7 50.9 109.5 50.9 109.2V101.4C50.9 101.1 51.1 100.9 51.4 100.9H59.2C59.5 100.9 59.7 101.1 59.7 101.4V109.2C59.7 109.5 59.4 109.7 59.2 109.7ZM51.9 108.7H58.7V101.9H51.9V108.7Z" fill="#60607F"/>
<path d="M51.1 79.6C44.2 79 38.8 76.3 35.5 72.2L41.6 65.5C44.5 68.7 48 70.4 51.8 71V58L50.2 57.7C41.2 56.1 37 50.8 37 43.6C37 35.8 42 30.5 51.1 29.3V22H59.1V29.3C64.9 30.1 69.1 32.5 71.9 35.7L65.9 42.4C63.9 40.2 61.4 38.8 58.5 38.2V49.9L60.1 50.2C69 51.9 73.3 56.9 73.3 64C73.3 71.7 68.3 77.6 59.2 79.2V86.8H51.2V79.6H51.1ZM51.8 48.6V38C48.4 38.6 46.9 40.4 46.9 43.3C46.9 46.3 48.4 47.7 51.8 48.6ZM58.4 59.3V70.9C61.8 70.1 63.4 68 63.4 64.7C63.4 61.5 61.9 60.1 58.4 59.3Z" fill="#131515"/>
<path d="M59.1 87.3H51.1C50.8 87.3 50.6 87.1 50.6 86.8V80C44 79.4 38.5 76.7 35.1 72.4C34.9 72.2 35 71.9 35.1 71.8L41.2 65.1C41.3 65 41.5 65 41.6 64.9C41.7 64.9 41.9 65 42 65.1C44.6 67.9 47.8 69.7 51.4 70.3V58.5L50.2 58.3C41.4 56.7 36.6 51.5 36.6 43.7C36.6 35.6 41.7 30.3 50.7 29V22C50.7 21.7 50.9 21.5 51.2 21.5H59.2C59.5 21.5 59.7 21.7 59.7 22V28.9C65 29.7 69.3 31.9 72.3 35.4C72.5 35.6 72.5 35.9 72.3 36.1L66.3 42.8C66.2 42.9 66.1 43 65.9 43C65.8 43 65.6 42.9 65.5 42.8C63.8 40.9 61.6 39.6 58.9 38.9V49.5L60.1 49.7C68.9 51.4 73.7 56.4 73.7 64C73.7 72.1 68.4 77.9 59.6 79.6V86.8C59.6 87 59.4 87.3 59.1 87.3ZM51.6 86.3H58.6V79.2C58.6 79 58.8 78.8 59 78.7C67.6 77.2 72.7 71.7 72.7 64C72.7 56.9 68.3 52.3 59.9 50.7L58.3 50.4C58.1 50.4 57.9 50.2 57.9 49.9V38.2C57.9 38 58 37.9 58.1 37.8C58.2 37.7 58.4 37.7 58.5 37.7C61.4 38.3 63.9 39.7 65.8 41.7L71.2 35.7C68.2 32.5 64.2 30.5 59.1 29.8C58.9 29.8 58.7 29.6 58.7 29.3V22.5H51.7V29.4C51.7 29.7 51.5 29.9 51.3 29.9C42.6 31 37.7 36.1 37.7 43.7C37.7 51 42.2 55.8 50.5 57.3L52.1 57.6C52.3 57.6 52.5 57.8 52.5 58.1V71C52.5 71.1 52.4 71.3 52.3 71.4C52.2 71.5 52 71.5 51.9 71.5C48 70.9 44.6 69.2 41.8 66.3L36.4 72.2C39.7 76.1 45 78.6 51.4 79.1C51.7 79.1 51.9 79.3 51.9 79.6V86.3H51.6ZM58.4 71.4C58.3 71.4 58.2 71.4 58.1 71.3C58 71.2 57.9 71.1 57.9 70.9V59.3C57.9 59.1 58 59 58.1 58.9C58.2 58.8 58.4 58.8 58.5 58.8C62.3 59.7 63.9 61.4 63.9 64.7C63.9 68.2 62 70.5 58.5 71.4C58.5 71.4 58.5 71.4 58.4 71.4ZM58.9 60V70.3C61.5 69.5 62.9 67.6 62.9 64.8C62.9 62.1 61.8 60.8 58.9 60ZM51.8 49.1H51.7C48 48.1 46.4 46.4 46.4 43.4C46.4 40.1 48.2 38.2 51.7 37.6C51.8 37.6 52 37.6 52.1 37.7C52.2 37.8 52.3 37.9 52.3 38.1V48.7C52.3 48.9 52.2 49 52.1 49.1C52 49 51.9 49.1 51.8 49.1ZM51.3 38.6C48.6 39.2 47.4 40.7 47.4 43.3C47.4 45.7 48.5 47 51.3 47.9V38.6Z" fill="white"/>
</g>
<defs>
<clipPath id="clip0_91_3601">
<rect width="109.9" height="109.7" fill="white"/>
</clipPath>
</defs>
</svg>
