<svg width="90" height="93" viewBox="0 0 90 93" fill="none" xmlns="http://www.w3.org/2000/svg">
<g clip-path="url(#clip0_91_3550)">
<path d="M87.7 80.7H2.29999C1.99999 80.7 1.79999 80.5 1.79999 80.2V12C1.79999 11.7 1.99999 11.5 2.29999 11.5H87.7C88 11.5 88.2 11.7 88.2 12V80.2C88.2 80.5 88 80.7 87.7 80.7ZM2.79999 79.7H87.2V12.5H2.79999V79.7Z" fill="#60607F"/>
<path d="M75.7 73.6V82.9C75.7 88 62 92.2 45 92.2C28 92.2 14.3 88 14.3 82.8V73.5" fill="#131515"/>
<path d="M45 92.6C27.5 92.6 13.8 88.3 13.8 82.8V73.5H14.8V82.8C14.8 87 26.9 91.6 45 91.6C63.1 91.6 75.2 87.1 75.2 82.8V73.5H76.2V82.8C76.2 88.3 62.5 92.6 45 92.6Z" fill="#60607F"/>
<path d="M45 82.9C61.9551 82.9 75.7 78.7362 75.7 73.6C75.7 68.4638 61.9551 64.3 45 64.3C28.0448 64.3 14.3 68.4638 14.3 73.6C14.3 78.7362 28.0448 82.9 45 82.9Z" fill="#131515"/>
<path d="M45 83.3C27.5 83.3 13.8 79 13.8 73.5C13.8 68 27.5 63.7 45 63.7C62.5 63.7 76.2 68 76.2 73.5C76.2 79 62.5 83.3 45 83.3ZM45 64.8C26.9 64.8 14.8 69.3 14.8 73.6C14.8 77.8 26.9 82.4 45 82.4C63.1 82.4 75.2 77.9 75.2 73.6C75.2 69.3 63.1 64.8 45 64.8Z" fill="#60607F"/>
<path d="M75.7 52.3V61.6C75.7 66.7 62 70.9 45 70.9C28 70.9 14.3 66.7 14.3 61.6V52.3" fill="#131515"/>
<path d="M45 71.4C27.5 71.4 13.8 67.1 13.8 61.6V52.3H14.8V61.6C14.8 65.8 26.9 70.4 45 70.4C63.1 70.4 75.2 65.9 75.2 61.6V52.3H76.2V61.6C76.2 67.1 62.5 71.4 45 71.4Z" fill="#60607F"/>
<path d="M45 61.6C61.9551 61.6 75.7 57.4362 75.7 52.3C75.7 47.1638 61.9551 43 45 43C28.0448 43 14.3 47.1638 14.3 52.3C14.3 57.4362 28.0448 61.6 45 61.6Z" fill="#131515"/>
<path d="M45 62.1C27.5 62.1 13.8 57.8 13.8 52.3C13.8 46.8 27.5 42.5 45 42.5C62.5 42.5 76.2 46.8 76.2 52.3C76.2 57.8 62.5 62.1 45 62.1ZM45 43.5C26.9 43.5 14.8 48 14.8 52.3C14.8 56.6 26.9 61.1 45 61.1C63.1 61.1 75.2 56.6 75.2 52.3C75.2 48 63.1 43.5 45 43.5Z" fill="#60607F"/>
<path d="M75.7 31V40.3C75.7 45.4 62 49.6 45 49.6C28 49.6 14.3 45.4 14.3 40.3V31" fill="#131515"/>
<path d="M45 50.1C27.5 50.1 13.8 45.8 13.8 40.3V31H14.8V40.3C14.8 44.5 26.9 49.1 45 49.1C63.1 49.1 75.2 44.6 75.2 40.3V31H76.2V40.3C76.2 45.8 62.5 50.1 45 50.1Z" fill="#60607F"/>
<path d="M45 40.3C61.9551 40.3 75.7 36.1362 75.7 31C75.7 25.8637 61.9551 21.7 45 21.7C28.0448 21.7 14.3 25.8637 14.3 31C14.3 36.1362 28.0448 40.3 45 40.3Z" fill="#131515"/>
<path d="M45 40.8C27.5 40.8 13.8 36.5 13.8 31C13.8 25.5 27.5 21.2 45 21.2C62.5 21.2 76.2 25.5 76.2 31C76.2 36.5 62.5 40.8 45 40.8ZM45 22.3C26.9 22.3 14.8 26.8 14.8 31.1C14.8 35.3 26.9 39.9 45 39.9C63.1 39.9 75.2 35.4 75.2 31.1C75.2 26.8 63.1 22.3 45 22.3Z" fill="#60607F"/>
<path d="M75.7 9.8V19.1C75.7 24.2 62 28.4 45 28.4C28 28.4 14.3 24.2 14.3 19.1V9.8" fill="#131515"/>
<path d="M45 28.8C27.5 28.8 13.8 24.5 13.8 19V9.8H14.8V19.1C14.8 23.3 26.9 27.9 45 27.9C63.1 27.9 75.2 23.4 75.2 19.1V9.8H76.2V19.1C76.2 24.5 62.5 28.8 45 28.8Z" fill="white"/>
<path d="M45 19.1C61.9551 19.1 75.7 14.9362 75.7 9.8C75.7 4.66375 61.9551 0.5 45 0.5C28.0448 0.5 14.3 4.66375 14.3 9.8C14.3 14.9362 28.0448 19.1 45 19.1Z" fill="#131515"/>
<path d="M45 19.6C27.5 19.6 13.8 15.3 13.8 9.8C13.8 4.3 27.5 0 45 0C62.5 0 76.2 4.3 76.2 9.8C76.2 15.3 62.5 19.6 45 19.6ZM45 1C26.9 1 14.8 5.5 14.8 9.8C14.8 14 26.9 18.6 45 18.6C63.1 18.6 75.2 14 75.2 9.8C75.2 5.5 63.1 1 45 1Z" fill="white"/>
<path d="M2.1 23.1C2.98366 23.1 3.7 22.3837 3.7 21.5C3.7 20.6163 2.98366 19.9 2.1 19.9C1.21634 19.9 0.5 20.6163 0.5 21.5C0.5 22.3837 1.21634 23.1 2.1 23.1Z" fill="black"/>
<path d="M2.1 23.6C1 23.6 0 22.7 0 21.5C0 20.3 0.9 19.4 2.1 19.4C3.2 19.4 4.2 20.3 4.2 21.5C4.2 22.7 3.2 23.6 2.1 23.6ZM2.1 20.5C1.5 20.5 1 21 1 21.5C1 22 1.5 22.6 2.1 22.6C2.7 22.6 3.2 22.1 3.2 21.5C3.2 20.9 2.7 20.5 2.1 20.5Z" fill="white"/>
<path d="M2.1 30.8C2.98366 30.8 3.7 30.0837 3.7 29.2C3.7 28.3164 2.98366 27.6 2.1 27.6C1.21634 27.6 0.5 28.3164 0.5 29.2C0.5 30.0837 1.21634 30.8 2.1 30.8Z" fill="black"/>
<path d="M2.1 31.3C1 31.3 0 30.4 0 29.2C0 28.1 0.9 27.1 2.1 27.1C3.2 27.1 4.2 28 4.2 29.2C4.1 30.4 3.2 31.3 2.1 31.3ZM2.1 28.2C1.5 28.2 1 28.7 1 29.3C1 29.9 1.5 30.4 2.1 30.4C2.7 30.4 3.2 29.9 3.2 29.3C3.1 28.6 2.7 28.2 2.1 28.2Z" fill="white"/>
<path d="M2.1 38.5C2.98366 38.5 3.7 37.7837 3.7 36.9C3.7 36.0163 2.98366 35.3 2.1 35.3C1.21634 35.3 0.5 36.0163 0.5 36.9C0.5 37.7837 1.21634 38.5 2.1 38.5Z" fill="black"/>
<path d="M2.1 39C0.9 39 0 38 0 36.9C0 35.8 0.9 34.8 2.1 34.8C3.2 34.8 4.2 35.7 4.2 36.9C4.1 38 3.2 39 2.1 39ZM2.1 35.8C1.5 35.8 1 36.3 1 36.9C1 37.5 1.5 38 2.1 38C2.7 38 3.2 37.5 3.2 36.9C3.1 36.3 2.7 35.8 2.1 35.8Z" fill="white"/>
<path d="M87.7 56.8C88.5837 56.8 89.3 56.0837 89.3 55.2C89.3 54.3164 88.5837 53.6 87.7 53.6C86.8163 53.6 86.1 54.3164 86.1 55.2C86.1 56.0837 86.8163 56.8 87.7 56.8Z" fill="black"/>
<path d="M87.7 57.3C86.6 57.3 85.6 56.4 85.6 55.2C85.6 54.1 86.5 53.1 87.7 53.1C88.8 53.1 89.8 54 89.8 55.2C89.8 56.4 88.8 57.3 87.7 57.3ZM87.7 54.2C87.1 54.2 86.6 54.7 86.6 55.3C86.6 55.9 87.1 56.4 87.7 56.4C88.3 56.4 88.8 55.9 88.8 55.3C88.8 54.6 88.3 54.2 87.7 54.2Z" fill="white"/>
<path d="M87.7 64.5C88.5837 64.5 89.3 63.7837 89.3 62.9C89.3 62.0163 88.5837 61.3 87.7 61.3C86.8163 61.3 86.1 62.0163 86.1 62.9C86.1 63.7837 86.8163 64.5 87.7 64.5Z" fill="black"/>
<path d="M87.7 65C86.6 65 85.6 64.1 85.6 62.9C85.6 61.7 86.5 60.8 87.7 60.8C88.8 60.8 89.8 61.7 89.8 62.9C89.8 64.1 88.8 65 87.7 65ZM87.7 61.8C87.1 61.8 86.6 62.3 86.6 62.9C86.6 63.5 87.1 64 87.7 64C88.3 64 88.8 63.5 88.8 62.9C88.8 62.3 88.3 61.8 87.7 61.8Z" fill="white"/>
<path d="M87.7 72.2C88.5837 72.2 89.3 71.4837 89.3 70.6C89.3 69.7163 88.5837 69 87.7 69C86.8163 69 86.1 69.7163 86.1 70.6C86.1 71.4837 86.8163 72.2 87.7 72.2Z" fill="black"/>
<path d="M87.7 72.7C86.6 72.7 85.6 71.8 85.6 70.6C85.6 69.5 86.5 68.5 87.7 68.5C88.8 68.5 89.8 69.4 89.8 70.6C89.8 71.7 88.8 72.7 87.7 72.7ZM87.7 69.5C87.1 69.5 86.6 70 86.6 70.6C86.6 71.2 87.1 71.7 87.7 71.7C88.3 71.7 88.8 71.2 88.8 70.6C88.8 70 88.3 69.5 87.7 69.5Z" fill="white"/>
</g>
<defs>
<clipPath id="clip0_91_3550">
<rect width="89.8" height="92.6" fill="white"/>
</clipPath>
</defs>
</svg>
