<svg width="103" height="104" viewBox="0 0 103 104" fill="none" xmlns="http://www.w3.org/2000/svg">
<g clip-path="url(#clip0_91_3787)">
<path d="M101.5 57.4H94.4C94.3 57.4 94.1 57.3 94 57.3L89 52.3H51V51.3H89.3C89.4 51.3 89.6 51.4 89.7 51.4L94.7 56.4H101.6V57.4H101.5Z" fill="#60607F"/>
<path d="M98.8 61.1L98.1 60.4L101.5 56.9L98.1 53.2L98.8 52.5L102.6 56.5C102.8 56.7 102.8 57 102.6 57.2L98.8 61.1Z" fill="#60607F"/>
<path d="M51.9 51.8H50.9V13.5C50.9 13.4 51 13.2 51 13.1L56 8.1V1.3H57V8.39999C57 8.49999 56.9 8.7 56.9 8.8L51.9 13.8V51.8Z" fill="#60607F"/>
<path d="M52.8 4.6L52.1 3.9L56.1 0.099997C56.3 -0.100003 56.6 -0.100003 56.8 0.099997L60.6 3.9L60 4.6L56.5 1.2L52.8 4.6Z" fill="#60607F"/>
<path d="M51.8 52.5H13.5C13.4 52.5 13.2 52.4 13.1 52.4L8.1 47.4H1.3V46.4H8.4C8.5 46.4 8.7 46.5 8.8 46.5L13.8 51.5H51.9V52.5H51.8Z" fill="#60607F"/>
<path d="M3.9 51.2L0.0999996 47.2C-3.7998e-07 47 -3.7998e-07 46.7 0.0999996 46.5L3.9 42.7L4.6 43.4L1.2 46.9L4.6 50.6L3.9 51.2Z" fill="#60607F"/>
<path d="M46.7 102.5H45.7V95.4C45.7 95.3 45.8 95.1 45.8 95L50.8 90V52H51.8V90.3C51.8 90.4 51.7 90.6 51.7 90.7L46.7 95.7V102.5Z" fill="#60607F"/>
<path d="M46.2 103.7C46.1 103.7 45.9 103.7 45.9 103.6L42 99.9L42.7 99.2L46.2 102.6L49.9 99.2L50.6 99.9L46.6 103.7C46.5 103.7 46.3 103.7 46.2 103.7Z" fill="#60607F"/>
<path d="M82.9 91.2L77.9 86.2C77.8 86.1 77.8 86 77.8 85.8V78.8L50.8 51.9L51.5 51.2L78.6 78.3C78.7 78.4 78.7 78.5 78.7 78.7V85.7L83.5 90.5L82.9 91.2Z" fill="#60607F"/>
<path d="M78.4 92V91L83.3 90.9L83.5 85.9H84.5L84.3 91.4C84.3 91.7 84.1 91.9 83.8 91.9L78.4 92Z" fill="#60607F"/>
<path d="M51.8 52.1L51.1 51.4L78.2 24.3C78.3 24.2 78.4 24.2 78.6 24.2H85.6L90.4 19.4L91.1 20.1L86.1 25.1C86 25.2 85.9 25.2 85.7 25.2H78.7L51.8 52.1Z" fill="#60607F"/>
<path d="M90.9 24.6L90.8 19.7L85.8 19.5V18.5L91.3 18.7C91.6 18.7 91.8 18.9 91.8 19.2L91.9 24.6H90.9Z" fill="#60607F"/>
<path d="M51.2 52.6L24.1 25.5C24 25.4 24 25.3 24 25.2V18.2L19.2 13.4L19.9 12.7L24.9 17.7C25 17.8 25 17.9 25 18.1V25.1L51.9 52L51.2 52.6Z" fill="#60607F"/>
<path d="M19.3 17.9H18.3L18.5 12.4C18.5 12.1 18.7 11.9 19 11.9L24.4 11.8V12.8L19.5 12.9L19.3 17.9Z" fill="#60607F"/>
<path d="M12.3 84.4L11.6 83.7L16.6 78.7C16.7 78.6 16.8 78.6 17 78.6H24L50.9 51.7L51.6 52.4L24.5 79.4C24.4 79.5 24.3 79.5 24.1 79.5H17.1L12.3 84.4Z" fill="#60607F"/>
<path d="M16.9 85.3L11.4 85.1C11.1 85.1 10.9 84.9 10.9 84.6L10.8 79.2H11.8L11.9 84.1L16.9 84.3V85.3Z" fill="#60607F"/>
<path d="M65.4 100.3L62.7 93.8C62.6 93.7 62.6 93.5 62.7 93.4L65.4 86.9L50.8 51.6L51.7 51.2L66.3 86.6C66.4 86.7 66.4 86.9 66.3 87L63.6 93.5L66.2 99.8L65.4 100.3Z" fill="#60607F"/>
<path d="M66.1 101.3C66 101.3 66 101.3 65.9 101.3L60.9 99.3L61.3 98.4L65.8 100.2L67.9 95.6L68.8 96L66.5 101C66.5 101.2 66.3 101.3 66.1 101.3Z" fill="#60607F"/>
<path d="M51.7 52.3L51.3 51.4L86.7 36.8C86.8 36.7 87 36.7 87.1 36.8L93.6 39.5L99.9 36.9L100.3 37.8L93.8 40.5C93.7 40.6 93.5 40.6 93.4 40.5L86.9 37.8L51.7 52.3Z" fill="#60607F"/>
<path d="M99.3 42.2L98.4 41.8L100.2 37.3L95.6 35.2L96 34.3L101 36.6C101.2 36.7 101.4 37 101.3 37.2L99.3 42.2Z" fill="#60607F"/>
<path d="M50.9 52.5L36.3 17.1C36.2 17 36.2 16.8 36.3 16.7L39 10.2L36.4 3.9L37.3 3.5L40 10C40.1 10.1 40.1 10.3 40 10.4L37.3 16.9L51.9 52.1L50.9 52.5Z" fill="#60607F"/>
<path d="M34.7 8.2L33.8 7.8L36.1 2.8C36.2 2.6 36.5 2.4 36.7 2.5L41.7 4.5L41.3 5.4L36.8 3.6L34.7 8.2Z" fill="#60607F"/>
<path d="M15.9 67C15.8 67 15.8 67 15.7 67L9.2 64.3L2.9 66.9L2.4 66L9 63.3C9.1 63.2 9.3 63.2 9.4 63.3L15.9 66L51.1 51.4L51.5 52.3L16 67H15.9Z" fill="#60607F"/>
<path d="M6.7 69.5L1.7 67.2C1.5 67.1 1.3 66.8 1.4 66.6L3.4 61.6L4.3 62L2.5 66.5L7.1 68.6L6.7 69.5Z" fill="#60607F"/>
<path d="M29.3 97.1L28.4 96.7L30.9 90.1C30.9 90 31 89.9 31.2 89.8L37.6 86.9L51.2 51.3L52.1 51.7L38.4 87.5C38.4 87.6 38.3 87.7 38.1 87.8L31.7 90.7L29.3 97.1Z" fill="#60607F"/>
<path d="M28.6 98.1C28.4 98.1 28.2 98 28.1 97.8L25.8 92.9L26.7 92.5L28.8 96.9L33.5 95L33.9 95.9L28.8 98C28.7 98.1 28.6 98.1 28.6 98.1Z" fill="#60607F"/>
<path d="M96.7 75.1L90.1 72.6C90 72.6 89.9 72.5 89.8 72.3L86.9 65.9L51.3 52.4L51.7 51.5L87.5 65.1C87.6 65.1 87.7 65.2 87.8 65.4L90.7 71.8L97.1 74.2L96.7 75.1Z" fill="#60607F"/>
<path d="M92.9 77.7L92.5 76.8L96.9 74.7L95 70.1L95.9 69.7L98 74.8C98.1 75 98 75.3 97.7 75.4L92.9 77.7Z" fill="#60607F"/>
<path d="M51.6 52.4L50.6 52L64.2 16.2C64.2 16.1 64.3 16 64.5 15.9L70.9 13L73.3 6.6L74.3 7L71.8 13.6C71.8 13.7 71.7 13.8 71.5 13.9L65.1 16.8L51.6 52.4Z" fill="#60607F"/>
<path d="M76 11.2L73.9 6.8L69.2 8.7L68.8 7.8L74 5.7C74.2 5.6 74.5 5.7 74.6 6L76.9 10.9L76 11.2Z" fill="#60607F"/>
<path d="M51.1 52.3L15.3 38.7C15.2 38.7 15.1 38.6 15 38.4L12.1 32L5.7 29.6L6.1 28.7L12.7 31.2C12.8 31.2 12.9 31.3 13 31.5L15.9 37.9L51.5 51.5L51.1 52.3Z" fill="#60607F"/>
<path d="M6.8 34.1L4.7 29C4.6 28.8 4.7 28.5 5 28.4L9.9 26.1L10.3 27L5.8 29L7.7 33.7L6.8 34.1Z" fill="#60607F"/>
<path d="M51.4 77C65.3176 77 76.6 65.7176 76.6 51.8C76.6 37.8824 65.3176 26.6 51.4 26.6C37.4824 26.6 26.2 37.8824 26.2 51.8C26.2 65.7176 37.4824 77 51.4 77Z" fill="#131515"/>
<path d="M51.4 77.5C37.2 77.5 25.7 66 25.7 51.8C25.6 37.6 37.2 26 51.4 26C65.6 26 77.1 37.5 77.1 51.7C77.1 65.9 65.5 77.5 51.4 77.5ZM51.4 27C37.8 27 26.7 38.1 26.7 51.7C26.7 65.3 37.8 76.4 51.4 76.4C65 76.4 76.1 65.3 76.1 51.7C76.1 38.1 65 27 51.4 27Z" fill="white"/>
<path d="M51.4 70.7C41 70.7 32.5 62.2 32.5 51.8C32.5 41.4 41 32.9 51.4 32.9C61.8 32.9 70.3 41.4 70.3 51.8C70.3 62.2 61.8 70.7 51.4 70.7ZM51.4 33.8C41.5 33.8 33.5 41.8 33.5 51.7C33.5 61.6 41.5 69.6 51.4 69.6C61.3 69.6 69.3 61.6 69.3 51.7C69.3 41.8 61.2 33.8 51.4 33.8Z" fill="#60607F"/>
<path d="M38.9 49.5C38.8 50.2 38.7 51 38.7 51.8C38.7 52.6 38.8 53.3 38.9 54H42.1C42.3 55 42.8 56 43.3 56.9L41 59.2C41.9 60.4 42.9 61.5 44.2 62.4L46.5 60.1C47.4 60.6 48.4 61.1 49.4 61.3V64.6C50.2 64.7 50.9 64.8 51.7 64.8C52.4 64.8 53.2 64.7 53.9 64.6V61.3C54.9 61.1 55.9 60.6 56.8 60.1L59.1 62.4C60.3 61.5 61.4 60.5 62.3 59.2L60 57C60.5 56.1 61 55.1 61.2 54.1H64.5C64.6 53.4 64.7 52.6 64.7 51.9C64.7 51.1 64.6 50.4 64.5 49.6H61.2C61 48.6 60.5 47.6 60 46.7L62.3 44.4C61.4 43.2 60.3 42.1 59.1 41.2L56.8 43.5C55.9 43 54.9 42.5 53.9 42.3V39C53.2 38.9 52.5 38.8 51.7 38.8C50.9 38.8 50.1 38.9 49.4 39V42.2C48.4 42.4 47.4 42.9 46.5 43.4L44.2 41.1C43 42 41.9 43.1 41 44.3L43.3 46.6C42.8 47.5 42.3 48.5 42.1 49.5H38.9Z" fill="#131515"/>
<path d="M51.8 65.4C51 65.4 50.2 65.3 49.4 65.2C49.2 65.2 49 64.9 49 64.7V61.8C48.2 61.6 47.4 61.3 46.7 60.8L44.7 62.8C44.5 63 44.3 63 44.1 62.9C42.8 62 41.7 60.9 40.8 59.6C40.7 59.4 40.7 59.1 40.9 59L42.9 57C42.5 56.3 42.2 55.5 41.9 54.7H39.1C38.9 54.7 38.6 54.5 38.6 54.3C38.5 53.5 38.4 52.7 38.4 52C38.4 51.2 38.5 50.5 38.6 49.6C38.6 49.4 38.8 49.2 39.1 49.2H41.9C42.1 48.4 42.4 47.6 42.9 46.9L40.9 44.9C40.7 44.7 40.7 44.5 40.8 44.3C41.7 43 42.8 41.9 44.1 41C44.3 40.9 44.6 40.9 44.7 41.1L46.7 43.1C47.4 42.7 48.2 42.4 49 42.1V39C49 38.8 49.2 38.6 49.4 38.5C51 38.2 52.4 38.2 54.1 38.5C54.3 38.5 54.5 38.7 54.5 39V41.8C55.3 42 56.1 42.3 56.8 42.8L58.8 40.8C59 40.6 59.2 40.6 59.4 40.7C60.7 41.6 61.8 42.7 62.7 44C62.8 44.2 62.8 44.5 62.6 44.6L60.5 46.7C60.9 47.4 61.2 48.2 61.5 49H64.4C64.6 49 64.9 49.2 64.9 49.4C65 50.2 65.1 51 65.1 51.8C65.1 52.5 65 53.3 64.9 54.1C64.9 54.3 64.7 54.5 64.4 54.5H61.5C61.3 55.3 61 56.1 60.5 56.8L62.6 58.9C62.8 59.1 62.8 59.3 62.7 59.5C61.8 60.8 60.7 61.9 59.4 62.8C59.2 62.9 58.9 62.9 58.8 62.7L56.7 60.6C56 61 55.2 61.3 54.4 61.6V64.5C54.4 64.7 54.2 65 54 65C53.2 65.3 52.5 65.4 51.8 65.4ZM49.9 64.2C51.1 64.4 52.2 64.4 53.4 64.2V61.3C53.4 61.1 53.6 60.9 53.8 60.8C54.8 60.6 55.7 60.2 56.6 59.7C56.8 59.6 57.1 59.6 57.2 59.8L59.2 61.8C60.1 61.1 61 60.3 61.7 59.3L59.6 57.2C59.4 57 59.4 56.8 59.5 56.6C60 55.7 60.4 54.8 60.6 53.8C60.7 53.6 60.9 53.4 61.1 53.4H64C64.1 52.8 64.1 52.2 64.1 51.7C64.1 51.1 64.1 50.5 64 49.9H61.1C60.9 49.9 60.7 49.7 60.6 49.5C60.4 48.5 60 47.6 59.5 46.7C59.4 46.5 59.4 46.2 59.6 46.1L61.6 44.1C60.9 43.2 60 42.3 59.1 41.6L57.1 43.6C57 44 56.8 44 56.6 43.9C55.7 43.4 54.8 43 53.8 42.8C53.6 42.7 53.4 42.5 53.4 42.3V39.5C52.1 39.3 51.1 39.3 49.9 39.5V42.3C49.9 42.5 49.7 42.7 49.5 42.8C48.5 43 47.6 43.4 46.7 43.9C46.5 44 46.2 44 46.1 43.8L44.1 41.8C43.2 42.5 42.3 43.3 41.6 44.3L43.5 46.2C43.7 46.4 43.7 46.6 43.6 46.8C43.1 47.7 42.7 48.6 42.5 49.6C42.4 49.8 42.2 50 42 50H39.2C39.1 50.6 39.1 51.2 39.1 51.8C39.1 52.4 39.1 52.9 39.2 53.5H42C42.2 53.5 42.4 53.7 42.5 53.9C42.7 54.9 43.1 55.8 43.6 56.7C43.7 56.9 43.7 57.2 43.5 57.3L41.5 59.3C42.2 60.2 43 61.1 44 61.8L46 59.8C46.2 59.6 46.4 59.6 46.6 59.7C47.5 60.2 48.4 60.6 49.4 60.8C49.6 60.9 49.8 61.1 49.8 61.3V64.2H49.9Z" fill="white"/>
<path d="M51.8 56.2C54.2301 56.2 56.2 54.23 56.2 51.8C56.2 49.3699 54.2301 47.4 51.8 47.4C49.3699 47.4 47.4 49.3699 47.4 51.8C47.4 54.23 49.3699 56.2 51.8 56.2Z" fill="#131515"/>
<path d="M51.8 56.8C49.1 56.8 46.9 54.6 46.9 51.9C46.9 49.2 49.1 47 51.8 47C54.5 47 56.7 49.2 56.7 51.9C56.7 54.6 54.5 56.8 51.8 56.8ZM51.8 47.9C49.6 47.9 47.9 49.7 47.9 51.8C47.9 53.9 49.7 55.7 51.8 55.7C53.9 55.7 55.7 53.9 55.7 51.8C55.7 49.7 53.9 47.9 51.8 47.9Z" fill="white"/>
</g>
<defs>
<clipPath id="clip0_91_3787">
<rect width="102.7" height="103.7" fill="white"/>
</clipPath>
</defs>
</svg>
