<svg width="101" height="90" viewBox="0 0 101 90" fill="none" xmlns="http://www.w3.org/2000/svg">
<g clip-path="url(#clip0_91_4040)">
<path d="M14.7 20.9H13.7V13.2C13.7 12.9 13.9 12.7 14.2 12.7H29.9V4.39999H30.9V13.2C30.9 13.5 30.7 13.7 30.4 13.7H14.7V20.9Z" fill="#60607F"/>
<path d="M48.9 20.9H47.9V13.7H34.1C33.8 13.7 33.6 13.5 33.6 13.2V4.39999H34.6V12.7H48.4C48.7 12.7 48.9 12.9 48.9 13.2V20.9Z" fill="#60607F"/>
<path d="M52.6 20.9H51.6V13.2C51.6 12.9 51.8 12.7 52.1 12.7H65.9V4.39999H66.9V13.2C66.9 13.5 66.7 13.7 66.4 13.7H52.6V20.9Z" fill="#60607F"/>
<path d="M86.8 20.9H85.8V13.7H70.1C69.8 13.7 69.6 13.5 69.6 13.2V4.39999H70.6V12.7H86.3C86.6 12.7 86.8 12.9 86.8 13.2V20.9Z" fill="#60607F"/>
<path d="M45.9 0.5H18.5V6.5H45.9V0.5Z" fill="#131515"/>
<path d="M45.9 7H18.5C18.2 7 18 6.8 18 6.5V0.5C18 0.2 18.2 0 18.5 0H45.9C46.2 0 46.4 0.2 46.4 0.5V6.5C46.4 6.8 46.2 7 45.9 7ZM19 6H45.4V1H19V6Z" fill="#60607F"/>
<path d="M82 0.5H54.6V6.5H82V0.5Z" fill="#131515"/>
<path d="M82 7H54.6C54.3 7 54.1 6.8 54.1 6.5V0.5C54.1 0.2 54.3 0 54.6 0H82C82.3 0 82.5 0.2 82.5 0.5V6.5C82.5 6.8 82.2 7 82 7ZM55.1 6H81.5V1H55.1V6Z" fill="#60607F"/>
<path d="M36.5 22.6H27.9V23.6H36.5V22.6Z" fill="#60607F"/>
<path d="M72.6 22.6H64V23.6H72.6V22.6Z" fill="#60607F"/>
<path d="M54.5 3H45.9V4H54.5V3Z" fill="#60607F"/>
<path d="M70.6 85.2H69.6V76.4C69.6 76.1 69.8 75.9 70.1 75.9H85.8V68.7H86.8V76.4C86.8 76.7 86.6 76.9 86.3 76.9H70.6V85.2Z" fill="#60607F"/>
<path d="M66.9 85.2H65.9V76.9H52.1C51.8 76.9 51.6 76.7 51.6 76.4V68.7H52.6V75.9H66.4C66.7 75.9 66.9 76.1 66.9 76.4V85.2Z" fill="#60607F"/>
<path d="M34.6 85.2H33.6V76.4C33.6 76.1 33.8 75.9 34.1 75.9H47.9V68.7H48.9V76.4C48.9 76.7 48.7 76.9 48.4 76.9H34.6V85.2Z" fill="#60607F"/>
<path d="M30.9 85.2H29.9V76.9H14.2C13.9 76.9 13.7 76.7 13.7 76.4V68.7H14.7V75.9H30.4C30.7 75.9 30.9 76.1 30.9 76.4V85.2Z" fill="#60607F"/>
<path d="M54.5288 89.2082H81.9288V83.2082H54.5288V89.2082Z" fill="#131515"/>
<path d="M82 89.7H54.6C54.3 89.7 54.1 89.5 54.1 89.2V83.2C54.1 82.9 54.3 82.7 54.6 82.7H82C82.3 82.7 82.5 82.9 82.5 83.2V89.2C82.5 89.4 82.2 89.7 82 89.7ZM55.1 88.7H81.5V83.7H55.1V88.7Z" fill="#60607F"/>
<path d="M18.5522 89.2082H45.9522V83.2082H18.5522V89.2082Z" fill="#131515"/>
<path d="M45.9 89.7H18.5C18.2 89.7 18 89.5 18 89.2V83.2C18 82.9 18.2 82.7 18.5 82.7H45.9C46.2 82.7 46.4 82.9 46.4 83.2V89.2C46.4 89.4 46.2 89.7 45.9 89.7ZM19 88.7H45.4V83.7H19V88.7Z" fill="#60607F"/>
<path d="M72.6 66H64V67H72.6V66Z" fill="#60607F"/>
<path d="M36.5 66H27.9V67H36.5V66Z" fill="#60607F"/>
<path d="M54.5 87.5H45.9V88.5H54.5V87.5Z" fill="#60607F"/>
<path d="M86.8 63.5H85.8V46.4H22.8C22.7 46.4 22.5 46.3 22.4 46.3L13.8 37.7C13.7 37.6 13.7 37.5 13.7 37.3V26.1H14.7V37L23 45.3H86.2C86.5 45.3 86.7 45.5 86.7 45.8V63.5H86.8Z" fill="#60607F"/>
<path d="M50.7 63.5H49.7V53.9C49.7 53.8 49.8 53.6 49.8 53.5L68 35.3C68.1 35.2 68.2 35.2 68.4 35.2H85.7V24.2H86.7V35.7C86.7 36 86.5 36.2 86.2 36.2H68.7L50.7 54.1V63.5Z" fill="#60607F"/>
<path d="M14.7 63.5H13.7V54.1C13.7 53.8 13.9 53.6 14.2 53.6H36.3L49.9 40V25.5H50.9V40.2C50.9 40.3 50.8 40.5 50.8 40.6L36.9 54.4C36.8 54.5 36.7 54.5 36.5 54.5H14.7V63.5Z" fill="#60607F"/>
<path d="M72.5671 69.5373H99.9671V63.5373H72.5671V69.5373Z" fill="#131515"/>
<path d="M100 70H72.6C72.3 70 72.1 69.8 72.1 69.5V63.5C72.1 63.2 72.3 63 72.6 63H100C100.3 63 100.5 63.2 100.5 63.5V69.5C100.5 69.8 100.3 70 100 70ZM73.1 69H99.5V64H73.1V69Z" fill="white"/>
<path d="M36.5905 69.5373H63.9905V63.5373H36.5905V69.5373Z" fill="#131515"/>
<path d="M64 70H36.5C36.2 70 36 69.8 36 69.5V63.5C36 63.2 36.2 63 36.5 63H64C64.3 63 64.5 63.2 64.5 63.5V69.5C64.5 69.8 64.2 70 64 70ZM37 69H63.4V64H37V69Z" fill="white"/>
<path d="M0.513895 69.5373H27.9139V63.5373H0.513895V69.5373Z" fill="#131515"/>
<path d="M27.9 70H0.5C0.2 70 0 69.8 0 69.5V63.5C0 63.2 0.2 63 0.5 63H27.9C28.2 63 28.4 63.2 28.4 63.5V69.5C28.4 69.8 28.2 70 27.9 70ZM1 69H27.4V64H1V69Z" fill="white"/>
<path d="M27.9 20.1H0.5V26.1H27.9V20.1Z" fill="#131515"/>
<path d="M27.9 26.6H0.5C0.2 26.6 0 26.4 0 26.1V20.1C0 19.8 0.2 19.6 0.5 19.6H27.9C28.2 19.6 28.4 19.8 28.4 20.1V26.1C28.4 26.4 28.2 26.6 27.9 26.6ZM1 25.6H27.4V20.6H1V25.6Z" fill="white"/>
<path d="M63.9 20.1H36.5V26.1H63.9V20.1Z" fill="#131515"/>
<path d="M64 26.6H36.5C36.2 26.6 36 26.4 36 26.1V20.1C36 19.8 36.2 19.6 36.5 19.6H64C64.3 19.6 64.5 19.8 64.5 20.1V26.1C64.5 26.4 64.2 26.6 64 26.6ZM37 25.6H63.4V20.6H37V25.6Z" fill="white"/>
<path d="M100 20.1H72.6V26.1H100V20.1Z" fill="#131515"/>
<path d="M100 26.6H72.6C72.3 26.6 72.1 26.4 72.1 26.1V20.1C72.1 19.8 72.3 19.6 72.6 19.6H100C100.3 19.6 100.5 19.8 100.5 20.1V26.1C100.5 26.4 100.3 26.6 100 26.6ZM73.1 25.6H99.5V20.6H73.1V25.6Z" fill="white"/>
<path d="M58.4 47.5C59.2284 47.5 59.9 46.8284 59.9 46C59.9 45.1716 59.2284 44.5 58.4 44.5C57.5716 44.5 56.9 45.1716 56.9 46C56.9 46.8284 57.5716 47.5 58.4 47.5Z" fill="black"/>
<path d="M58.4 47.9C57.3 47.9 56.4 47 56.4 45.9C56.4 44.8 57.3 43.9 58.4 43.9C59.5 43.9 60.4 44.8 60.4 45.9C60.4 47 59.5 47.9 58.4 47.9ZM58.4 45C57.9 45 57.4 45.4 57.4 46C57.4 46.6 57.8 47 58.4 47C59 47 59.4 46.6 59.4 46C59.4 45.4 58.9 45 58.4 45Z" fill="white"/>
<path d="M50.2 65C51.0284 65 51.7 64.3284 51.7 63.5C51.7 62.6716 51.0284 62 50.2 62C49.3716 62 48.7 62.6716 48.7 63.5C48.7 64.3284 49.3716 65 50.2 65Z" fill="black"/>
<path d="M50.2 65.5C49.1 65.5 48.2 64.6 48.2 63.5C48.2 62.4 49.1 61.5 50.2 61.5C51.3 61.5 52.2 62.4 52.2 63.5C52.2 64.6 51.3 65.5 50.2 65.5ZM50.2 62.6C49.7 62.6 49.2 63 49.2 63.6C49.2 64.1 49.6 64.6 50.2 64.6C50.8 64.6 51.2 64.2 51.2 63.6C51.2 63 50.8 62.6 50.2 62.6Z" fill="white"/>
<path d="M14.2 65C15.0284 65 15.7 64.3284 15.7 63.5C15.7 62.6716 15.0284 62 14.2 62C13.3716 62 12.7 62.6716 12.7 63.5C12.7 64.3284 13.3716 65 14.2 65Z" fill="black"/>
<path d="M14.2 65.5C13.1 65.5 12.2 64.6 12.2 63.5C12.2 62.4 13.1 61.5 14.2 61.5C15.3 61.5 16.2 62.4 16.2 63.5C16.2 64.6 15.3 65.5 14.2 65.5ZM14.2 62.6C13.7 62.6 13.2 63 13.2 63.6C13.2 64.1 13.6 64.6 14.2 64.6C14.8 64.6 15.2 64.2 15.2 63.6C15.2 63 14.7 62.6 14.2 62.6Z" fill="white"/>
<path d="M86.3 65C87.1284 65 87.8 64.3284 87.8 63.5C87.8 62.6716 87.1284 62 86.3 62C85.4716 62 84.8 62.6716 84.8 63.5C84.8 64.3284 85.4716 65 86.3 65Z" fill="black"/>
<path d="M86.3 65.5C85.2 65.5 84.3 64.6 84.3 63.5C84.3 62.4 85.2 61.5 86.3 61.5C87.4 61.5 88.3 62.4 88.3 63.5C88.3 64.6 87.4 65.5 86.3 65.5ZM86.3 62.6C85.8 62.6 85.3 63 85.3 63.6C85.3 64.1 85.7 64.6 86.3 64.6C86.9 64.6 87.3 64.2 87.3 63.6C87.2 63 86.8 62.6 86.3 62.6Z" fill="white"/>
<path d="M50.2 27.6C51.0284 27.6 51.7 26.9284 51.7 26.1C51.7 25.2716 51.0284 24.6 50.2 24.6C49.3716 24.6 48.7 25.2716 48.7 26.1C48.7 26.9284 49.3716 27.6 50.2 27.6Z" fill="black"/>
<path d="M50.2 28.1C49.1 28.1 48.2 27.2 48.2 26.1C48.2 25 49.1 24.1 50.2 24.1C51.3 24.1 52.2 25 52.2 26.1C52.2 27.2 51.3 28.1 50.2 28.1ZM50.2 25.2C49.7 25.2 49.2 25.6 49.2 26.2C49.2 26.8 49.6 27.2 50.2 27.2C50.8 27.2 51.2 26.8 51.2 26.2C51.2 25.6 50.8 25.2 50.2 25.2Z" fill="white"/>
<path d="M14.2 27.6C15.0284 27.6 15.7 26.9284 15.7 26.1C15.7 25.2716 15.0284 24.6 14.2 24.6C13.3716 24.6 12.7 25.2716 12.7 26.1C12.7 26.9284 13.3716 27.6 14.2 27.6Z" fill="black"/>
<path d="M14.2 28.1C13.1 28.1 12.2 27.2 12.2 26.1C12.2 25 13.1 24.1 14.2 24.1C15.3 24.1 16.2 25 16.2 26.1C16.2 27.2 15.3 28.1 14.2 28.1ZM14.2 25.2C13.7 25.2 13.2 25.6 13.2 26.2C13.2 26.8 13.6 27.2 14.2 27.2C14.8 27.2 15.2 26.8 15.2 26.2C15.2 25.6 14.7 25.2 14.2 25.2Z" fill="white"/>
<path d="M86.3 27.6C87.1284 27.6 87.8 26.9284 87.8 26.1C87.8 25.2716 87.1284 24.6 86.3 24.6C85.4716 24.6 84.8 25.2716 84.8 26.1C84.8 26.9284 85.4716 27.6 86.3 27.6Z" fill="black"/>
<path d="M86.3 28.1C85.2 28.1 84.3 27.2 84.3 26.1C84.3 25 85.2 24.1 86.3 24.1C87.4 24.1 88.3 25 88.3 26.1C88.3 27.2 87.4 28.1 86.3 28.1ZM86.3 25.2C85.8 25.2 85.3 25.6 85.3 26.2C85.3 26.8 85.7 27.2 86.3 27.2C86.9 27.2 87.3 26.8 87.3 26.2C87.3 25.6 86.8 25.2 86.3 25.2Z" fill="white"/>
<path d="M44.5 47.5C45.3284 47.5 46 46.8284 46 46C46 45.1716 45.3284 44.5 44.5 44.5C43.6716 44.5 43 45.1716 43 46C43 46.8284 43.6716 47.5 44.5 47.5Z" fill="black"/>
<path d="M44.5 47.9C43.4 47.9 42.5 47 42.5 45.9C42.5 44.8 43.4 43.9 44.5 43.9C45.6 43.9 46.5 44.8 46.5 45.9C46.5 47 45.6 47.9 44.5 47.9ZM44.5 45C44 45 43.5 45.4 43.5 46C43.5 46.6 43.9 47 44.5 47C45.1 47 45.5 46.6 45.5 46C45.5 45.4 45 45 44.5 45Z" fill="white"/>
</g>
<defs>
<clipPath id="clip0_91_4040">
<rect width="100.5" height="89.7" fill="white"/>
</clipPath>
</defs>
</svg>
